<?xml version="1.0" encoding="UTF-8"?>
<svg xmlns="http://www.w3.org/2000/svg" xmlns:xlink="http://www.w3.org/1999/xlink" width="48px" height="48px" viewBox="0 0 48 48" version="1.1">
<g id="surface1">
<path style=" stroke:none;fill-rule:nonzero;fill:rgb(99.607843%,100%,100%);fill-opacity:1;" d="M 27.359375 48.160156 C 18.238281 48.160156 9.199219 48.160156 0.160156 48.160156 C 0.160156 32.160156 0.160156 16.160156 0.160156 0.160156 C 16.160156 0.160156 32.160156 0.160156 48.160156 0.160156 C 48.160156 16.160156 48.160156 32.160156 48.160156 48.160156 C 41.253906 48.160156 34.347656 48.160156 27.359375 48.160156 M 30.726562 22.714844 C 30.726562 22.714844 30.726562 22.707031 30.726562 22.585938 C 30.769531 22.300781 30.816406 22.019531 30.878906 21.742188 C 30.878906 21.742188 30.863281 21.742188 30.988281 21.765625 C 32.011719 22.074219 32.105469 21.996094 32 20.941406 C 31.992188 20.886719 31.992188 20.835938 32.042969 20.691406 C 33.515625 19.351562 34.386719 17.714844 34.546875 15.613281 C 34.488281 15.527344 34.433594 15.445312 34.398438 15.214844 C 34.339844 14.414062 34.285156 13.609375 34.21875 12.695312 C 33.960938 12.03125 33.707031 11.371094 33.453125 10.609375 C 33.386719 10.546875 33.320312 10.488281 33.257812 10.414062 C 33.257812 10.414062 33.25 10.421875 33.238281 10.3125 C 32.550781 9.191406 31.65625 8.300781 30.378906 7.734375 C 30.339844 7.695312 30.296875 7.679688 30.175781 7.617188 C 30.089844 7.59375 30.003906 7.570312 29.863281 7.445312 C 28.660156 6.679688 27.285156 6.554688 25.832031 6.308594 C 23.503906 6.128906 21.179688 6.148438 18.75 6.566406 C 18.417969 6.664062 18.085938 6.757812 17.621094 6.863281 C 15.902344 7.003906 14.75 7.847656 14.449219 9.21875 C 14.472656 9.554688 14.496094 9.890625 14.542969 10.316406 C 14.554688 10.347656 14.566406 10.375 14.554688 10.484375 C 14.546875 10.511719 14.539062 10.539062 14.449219 10.667969 C 14.433594 11.433594 14.414062 12.195312 14.304688 13.054688 C 14.28125 13.15625 14.242188 13.261719 14.242188 13.363281 C 14.238281 16.871094 14.238281 20.382812 14.246094 23.890625 C 14.246094 24.085938 14.347656 24.28125 14.46875 24.480469 C 14.46875 24.480469 14.539062 24.480469 14.5625 24.609375 C 14.554688 24.78125 14.546875 24.953125 14.457031 25.207031 C 14.484375 25.496094 14.507812 25.785156 14.558594 26.210938 C 14.550781 26.433594 14.542969 26.660156 14.460938 26.953125 C 14.484375 27.140625 14.511719 27.328125 14.558594 27.621094 C 14.570312 27.695312 14.578125 27.765625 14.558594 27.917969 C 14.550781 27.945312 14.542969 27.972656 14.488281 28.03125 C 14.503906 28.074219 14.519531 28.117188 14.566406 28.238281 C 14.578125 28.261719 14.585938 28.289062 14.566406 28.40625 C 14.574219 28.4375 14.585938 28.46875 14.578125 28.621094 C 14.628906 28.890625 14.683594 29.164062 14.710938 29.558594 C 14.878906 30.1875 15.027344 30.835938 15.78125 31.195312 C 15.8125 31.246094 15.847656 31.296875 15.765625 31.355469 C 15.582031 31.410156 15.402344 31.460938 15.164062 31.417969 C 14.714844 31.003906 14.496094 31.304688 14.261719 31.679688 C 13.953125 32.164062 13.570312 32.597656 13.292969 33.097656 C 13.136719 33.378906 13.132812 33.742188 13.058594 34.066406 C 13.398438 34.105469 13.800781 34.277344 14.058594 34.152344 C 14.378906 33.996094 14.640625 33.621094 14.8125 33.285156 C 15.015625 32.886719 15.089844 32.429688 15.304688 32.042969 C 15.429688 32.027344 15.554688 32.015625 15.679688 32 C 15.679688 32 15.679688 32 15.832031 32 C 16.949219 32 18.070312 32 19.1875 32 C 19.191406 31.972656 19.191406 31.941406 19.191406 31.914062 C 18.820312 31.851562 18.449219 31.785156 18.222656 31.699219 C 18.769531 31.652344 19.316406 31.605469 19.867188 31.570312 C 19.867188 31.570312 19.878906 31.570312 19.941406 31.585938 C 19.941406 31.585938 19.996094 31.554688 20.105469 31.554688 C 20.179688 31.554688 20.253906 31.554688 20.402344 31.625 C 20.589844 31.59375 20.773438 31.558594 21.011719 31.492188 C 21.011719 31.492188 21.070312 31.5 21.207031 31.511719 C 21.550781 31.515625 21.957031 31.617188 21.921875 30.890625 C 21.921875 28.753906 21.917969 26.617188 21.878906 24.382812 C 21.878906 24.132812 21.882812 23.882812 22.019531 23.59375 C 22.25 23.566406 22.480469 23.542969 22.832031 23.550781 C 22.953125 23.578125 23.070312 23.605469 23.203125 23.730469 C 23.417969 23.765625 23.632812 23.800781 23.933594 23.902344 C 24.277344 24.414062 24.625 24.925781 24.980469 25.550781 C 25.726562 26.730469 26.46875 27.914062 27.234375 29.203125 C 27.75 29.8125 28.265625 30.421875 28.84375 31.125 C 29.523438 31.371094 30.199219 31.613281 30.914062 31.980469 C 31.828125 32.238281 32.714844 32.292969 33.640625 31.898438 C 34.3125 31.613281 34.703125 31.132812 34.582031 30.277344 C 35.410156 29.007812 35.414062 28.964844 34.5625 27.769531 C 34.214844 27.28125 33.828125 26.820312 33.4375 26.25 C 33.277344 26.078125 33.117188 25.910156 32.929688 25.640625 C 32.777344 25.472656 32.625 25.300781 32.441406 25.050781 C 32.402344 25.007812 32.367188 24.964844 32.3125 24.8125 C 31.835938 24.164062 31.359375 23.515625 30.847656 22.804688 C 30.820312 22.761719 30.78125 22.734375 30.726562 22.714844 M 24.117188 41.621094 C 24.128906 41.671875 24.140625 41.726562 24.175781 41.882812 C 24.488281 41.886719 24.804688 41.886719 25.207031 41.90625 C 25.238281 41.855469 25.273438 41.808594 25.378906 41.761719 C 25.488281 41.800781 25.597656 41.839844 25.707031 41.875 C 25.683594 41.714844 25.703125 41.457031 25.617188 41.414062 C 25.425781 41.320312 25.183594 41.332031 24.859375 41.238281 C 24.910156 40.933594 24.964844 40.628906 25.019531 40.304688 C 25.261719 40.265625 25.503906 40.226562 26.015625 40.144531 C 25.535156 39.636719 25.199219 39.285156 24.785156 38.847656 C 25.839844 38.621094 25.84375 38.613281 25.644531 37.828125 C 25.148438 37.828125 24.65625 37.828125 24.078125 37.828125 C 24.105469 38.160156 24.132812 38.441406 24.121094 38.867188 C 24.132812 39.5625 24.144531 40.261719 24.117188 41.019531 C 24.128906 41.105469 24.140625 41.195312 24.121094 41.378906 C 24.128906 41.445312 24.140625 41.511719 24.117188 41.621094 M 18.75 41.199219 C 18.636719 41.046875 18.421875 40.898438 18.417969 40.742188 C 18.386719 39.773438 18.402344 38.804688 18.402344 37.800781 C 18.078125 37.800781 17.847656 37.800781 17.597656 37.691406 C 17.503906 37.5625 17.40625 37.4375 17.3125 37.308594 C 17.300781 37.394531 17.292969 37.484375 17.28125 37.570312 C 17.023438 37.65625 16.769531 37.742188 16.386719 37.867188 C 15.953125 37.945312 15.515625 38.023438 14.976562 38.054688 C 14.824219 37.964844 14.667969 37.871094 14.375 37.785156 C 13.863281 37.804688 13.351562 37.828125 12.820312 37.71875 C 12.691406 37.554688 12.566406 37.390625 12.367188 37.136719 C 12.25 37.53125 12.1875 37.734375 12.003906 37.90625 C 11.464844 37.851562 10.921875 37.796875 10.316406 37.734375 C 10.316406 39.21875 10.316406 40.578125 10.316406 41.957031 C 10.511719 41.957031 10.691406 41.957031 10.890625 42.050781 C 11.109375 42.054688 11.328125 42.058594 11.664062 42.058594 C 11.777344 42.070312 11.886719 42.078125 12.066406 42.171875 C 12.535156 42.351562 13.011719 42.605469 13.574219 42.070312 C 13.929688 41.96875 14.285156 41.871094 14.757812 41.765625 C 14.910156 41.761719 15.066406 41.757812 15.320312 41.816406 C 15.78125 41.847656 16.390625 42.066406 16.671875 41.855469 C 16.972656 41.625 16.988281 40.996094 17.078125 40.53125 C 17.109375 40.371094 16.988281 40.183594 17.035156 39.964844 C 17.144531 39.863281 17.253906 39.761719 17.367188 39.65625 C 17.4375 40.109375 17.5 40.535156 17.585938 41.074219 C 17.644531 41.199219 17.699219 41.324219 17.734375 41.554688 C 17.707031 42.164062 18.15625 41.824219 18.523438 41.917969 C 18.863281 41.71875 19.203125 41.519531 19.609375 41.296875 C 19.609375 41.296875 19.671875 41.257812 19.730469 41.347656 C 19.867188 41.378906 20.007812 41.410156 20.167969 41.558594 C 20.164062 41.679688 20.15625 41.800781 20.035156 41.921875 C 19.875 42.023438 19.714844 42.125 19.554688 42.226562 C 19.601562 42.289062 19.652344 42.351562 19.699219 42.410156 C 19.871094 42.292969 20.042969 42.171875 20.332031 42.042969 C 20.488281 42.058594 20.644531 42.070312 20.847656 42.175781 C 21.054688 42.136719 21.265625 42.101562 21.59375 42.054688 C 21.796875 42.054688 21.996094 42.058594 22.335938 42.070312 C 22.476562 42.070312 22.613281 42.066406 22.886719 42.054688 C 23.085938 42.039062 23.285156 42.019531 23.457031 42.003906 C 23.457031 40.566406 23.457031 39.199219 23.457031 37.820312 C 23.011719 37.820312 22.625 37.820312 22.199219 37.820312 C 22.089844 38.539062 21.984375 39.21875 21.878906 39.902344 C 21.851562 39.902344 21.824219 39.902344 21.796875 39.898438 C 21.691406 39.203125 21.582031 38.507812 21.472656 37.78125 C 21.003906 37.78125 20.609375 37.78125 20.066406 37.769531 C 19.917969 37.773438 19.769531 37.777344 19.503906 37.789062 C 19.28125 37.789062 19.0625 37.789062 18.796875 37.789062 C 18.828125 38.054688 18.847656 38.230469 18.832031 38.546875 C 18.835938 39.40625 18.835938 40.261719 18.75 41.199219 M 30.792969 40.003906 C 30.792969 40.003906 30.734375 39.992188 30.710938 39.871094 C 30.800781 39.660156 31 39.425781 30.960938 39.238281 C 30.859375 38.765625 30.78125 38.089844 30.457031 37.910156 C 30.089844 37.703125 29.402344 37.464844 28.878906 38.121094 C 28.910156 38.265625 28.9375 38.414062 28.9375 38.707031 C 28.925781 39.1875 28.917969 39.671875 28.800781 40.121094 C 28.667969 39.910156 28.53125 39.699219 28.402344 39.378906 C 28.375 39.210938 28.347656 39.042969 28.320312 38.75 C 28.300781 38.582031 28.28125 38.414062 28.230469 38.148438 C 27.992188 38.027344 27.753906 37.910156 27.402344 37.765625 C 27.066406 37.976562 26.726562 38.1875 26.335938 38.421875 C 26.324219 38.4375 26.300781 38.457031 26.304688 38.46875 C 26.3125 38.5 26.332031 38.53125 26.347656 38.714844 C 26.339844 39.511719 26.332031 40.304688 26.238281 41.132812 C 26.171875 41.53125 26.105469 41.929688 26.039062 42.328125 C 26.09375 42.386719 26.148438 42.449219 26.203125 42.507812 C 26.484375 42.320312 26.765625 42.128906 27.167969 41.925781 C 27.90625 42.191406 28.261719 41.960938 28.320312 41.1875 C 28.335938 41.003906 28.359375 40.824219 28.480469 40.644531 C 28.617188 40.644531 28.757812 40.644531 28.917969 40.785156 C 28.941406 41.109375 28.964844 41.4375 28.964844 41.855469 C 29.019531 41.910156 29.070312 41.964844 29.230469 42.050781 C 29.300781 42.039062 29.375 42.03125 29.585938 42.050781 C 29.964844 42.0625 30.34375 42.070312 30.730469 42.171875 C 30.949219 42.085938 31.164062 42 31.464844 41.949219 C 31.699219 41.867188 31.941406 41.8125 32.15625 41.699219 C 32.269531 41.640625 32.324219 41.480469 32.40625 41.363281 C 32.535156 41.46875 32.78125 41.574219 32.777344 41.675781 C 32.769531 42.230469 33.15625 42.058594 33.492188 42.179688 C 33.796875 42.492188 34.015625 42.476562 34.183594 42.027344 C 34.183594 42.027344 34.242188 42.078125 34.265625 42.132812 C 34.308594 42.121094 34.355469 42.109375 34.503906 42.0625 C 34.578125 42.074219 34.648438 42.085938 34.753906 42.144531 C 34.796875 42.121094 34.839844 42.097656 34.925781 42.011719 C 34.925781 42.011719 34.996094 41.980469 35.019531 42.09375 C 35.101562 42.1875 35.179688 42.277344 35.257812 42.371094 C 35.582031 41.769531 35.960938 42.328125 36.3125 42.324219 C 36.726562 42.324219 37.15625 42.449219 37.546875 42.363281 C 37.761719 42.316406 37.976562 41.972656 38.058594 41.722656 C 38.164062 41.394531 38.070312 41.078125 37.566406 40.976562 C 37.671875 39.925781 37.78125 38.875 37.890625 37.777344 C 37.351562 37.777344 36.773438 37.777344 36.066406 37.765625 C 35.976562 37.769531 35.890625 37.773438 35.660156 37.777344 C 35.101562 37.777344 34.546875 37.777344 33.980469 37.777344 C 34.015625 38.066406 34.039062 38.230469 33.9375 38.402344 C 33.75 38.679688 33.566406 38.953125 33.296875 39.128906 C 33.289062 38.78125 33.28125 38.429688 33.363281 38.050781 C 33.324219 37.941406 33.285156 37.835938 33.246094 37.726562 C 33.207031 37.765625 33.167969 37.800781 32.988281 37.796875 C 32.570312 37.796875 32.152344 37.796875 31.734375 37.796875 C 31.710938 38.097656 31.695312 38.328125 31.59375 38.640625 C 31.347656 39.097656 31.101562 39.554688 30.792969 40.003906 M 14.058594 30.953125 C 14.054688 30.753906 14.089844 30.398438 14.042969 30.390625 C 13.777344 30.328125 13.480469 30.304688 13.214844 30.359375 C 13.109375 30.382812 12.953125 30.664062 12.984375 30.785156 C 13.148438 31.429688 13.574219 31.191406 14.058594 30.953125 M 37.824219 39.757812 C 37.824219 39.757812 37.84375 39.746094 37.824219 39.757812 Z M 37.824219 39.757812 "/>
<path style=" stroke:none;fill-rule:nonzero;fill:rgb(34.117648%,88.627452%,96.862745%);fill-opacity:1;" d="M 30.421875 7.792969 C 31.65625 8.300781 32.550781 9.191406 33.1875 10.363281 C 33.035156 10.378906 32.914062 10.371094 32.839844 10.308594 C 30.933594 8.664062 28.664062 8.867188 26.464844 9.238281 C 25.390625 9.417969 24.375 10.082031 23.398438 10.644531 C 22.835938 10.96875 22.40625 11.527344 21.871094 11.992188 C 21.757812 12.015625 21.691406 12.027344 21.597656 12.007812 C 20.929688 12.335938 20.308594 12.726562 19.652344 13.042969 C 17.578125 14.046875 15.652344 13.203125 14.941406 11.023438 C 14.871094 10.800781 14.703125 10.609375 14.578125 10.40625 C 14.566406 10.375 14.554688 10.347656 14.542969 10.207031 C 14.535156 9.773438 14.53125 9.453125 14.527344 9.132812 C 14.75 7.847656 15.902344 7.003906 17.742188 6.878906 C 18.238281 7.210938 18.59375 7.566406 19 7.84375 C 19.664062 8.300781 20.320312 8.820312 21.058594 9.113281 C 22.171875 9.558594 23.273438 9.15625 24.386719 8.84375 C 26.207031 8.332031 28.074219 7.96875 29.917969 7.546875 C 30.003906 7.570312 30.089844 7.59375 30.226562 7.683594 C 30.273438 7.75 30.339844 7.796875 30.339844 7.796875 C 30.339844 7.796875 30.421875 7.792969 30.421875 7.792969 M 16.855469 11.78125 C 17.414062 12.152344 17.957031 12.476562 18.652344 12.035156 C 18.824219 11.925781 19.117188 12 19.433594 11.980469 C 19.484375 11.957031 19.523438 11.925781 19.625 11.867188 C 19.625 11.867188 19.695312 11.851562 19.808594 11.839844 C 20.046875 11.71875 20.308594 11.632812 20.511719 11.46875 C 20.925781 11.136719 20.914062 10.488281 20.476562 10.394531 C 19.417969 10.175781 18.851562 9.457031 18.238281 8.65625 C 17.984375 8.320312 17.226562 8.179688 16.753906 8.261719 C 16.40625 8.320312 15.929688 8.867188 15.894531 9.230469 C 15.84375 9.773438 15.453125 10.527344 16.296875 11.003906 C 16.304688 11.070312 16.316406 11.132812 16.328125 11.304688 C 16.480469 11.4375 16.632812 11.566406 16.855469 11.78125 Z M 16.855469 11.78125 "/>
<path style=" stroke:none;fill-rule:nonzero;fill:rgb(3.137255%,14.509805%,48.235294%);fill-opacity:1;" d="M 14.535156 26.882812 C 14.542969 26.660156 14.550781 26.433594 14.558594 26.074219 C 14.554688 25.667969 14.542969 25.394531 14.535156 25.125 C 14.546875 24.953125 14.554688 24.78125 14.566406 24.484375 C 14.578125 24.238281 14.589844 24.117188 14.667969 24 C 15.105469 24 15.472656 23.996094 15.839844 23.996094 C 15.839844 24 15.847656 24 15.859375 24.023438 C 15.875 24.050781 15.925781 24.082031 15.925781 24.082031 C 15.925781 24.082031 15.980469 24.066406 16.042969 24.089844 C 16.332031 24.160156 16.558594 24.203125 16.832031 24.28125 C 17.394531 24.316406 17.902344 24.320312 18.472656 24.328125 C 18.707031 24.265625 18.894531 24.230469 19.050781 24.140625 C 19.898438 23.667969 20.164062 22.824219 20.382812 21.964844 C 20.929688 19.820312 22.183594 18.449219 24.476562 18.199219 C 24.523438 18.191406 24.5625 18.140625 24.671875 18.105469 C 25.980469 17.988281 26.894531 17.375 27.21875 16.175781 C 27.410156 15.464844 27.316406 14.679688 27.402344 13.925781 C 27.523438 13.929688 27.59375 13.933594 27.679688 14 C 27.742188 14.324219 27.820312 14.578125 27.835938 14.835938 C 28.007812 17.425781 26.808594 18.597656 24.734375 19.675781 C 24.414062 19.84375 24.144531 20.109375 23.847656 20.328125 C 23.84375 20.328125 23.847656 20.328125 23.792969 20.316406 C 23.625 20.371094 23.507812 20.433594 23.367188 20.542969 C 23.183594 20.710938 23.027344 20.832031 22.828125 20.972656 C 22.667969 21.089844 22.554688 21.191406 22.378906 21.300781 C 21.578125 21.867188 21.332031 22.664062 21.613281 23.613281 C 21.589844 23.71875 21.578125 23.78125 21.523438 23.894531 C 21.46875 25.832031 21.453125 27.714844 21.378906 29.597656 C 21.027344 29.558594 20.621094 29.628906 20.457031 29.460938 C 19.644531 28.632812 18.894531 27.746094 18.128906 26.875 C 18.070312 26.808594 18.09375 26.671875 18.082031 26.566406 C 18.011719 25.9375 17.160156 24.898438 16.554688 24.828125 C 16.136719 24.777344 15.695312 24.886719 15.210938 24.929688 C 15.207031 24.929688 15.136719 24.726562 15.066406 24.527344 C 14.980469 24.53125 14.890625 24.535156 14.804688 24.542969 C 14.804688 24.953125 14.808594 25.359375 14.800781 25.769531 C 14.792969 26.464844 15.199219 27.207031 14.589844 27.839844 C 14.578125 27.765625 14.570312 27.695312 14.558594 27.507812 C 14.550781 27.222656 14.542969 27.054688 14.535156 26.882812 Z M 14.535156 26.882812 "/>
<path style=" stroke:none;fill-rule:nonzero;fill:rgb(67.450982%,97.647059%,98.823529%);fill-opacity:1;" d="M 30.878906 22.867188 C 31.359375 23.515625 31.835938 24.164062 32.253906 24.871094 C 31.808594 25.023438 31.417969 25.117188 30.996094 25.191406 C 30.957031 25.175781 30.882812 25.199219 30.820312 25.179688 C 30.53125 25.148438 30.3125 25.132812 30.050781 25.074219 C 29.304688 24.683594 28.582031 24.355469 27.882812 23.980469 C 27.054688 23.53125 26.273438 22.988281 25.421875 22.585938 C 24.398438 22.101562 23.527344 22.34375 22.796875 23.167969 C 22.835938 22.75 22.929688 22.335938 23.035156 21.882812 C 23.042969 21.84375 23.0625 21.769531 23.109375 21.761719 C 23.226562 21.707031 23.296875 21.65625 23.410156 21.585938 C 23.527344 21.527344 23.601562 21.484375 23.726562 21.441406 C 23.847656 21.382812 23.917969 21.332031 24.03125 21.273438 C 24.101562 21.261719 24.132812 21.257812 24.207031 21.257812 C 24.332031 21.21875 24.40625 21.175781 24.554688 21.128906 C 25.679688 21.335938 26.726562 21.585938 27.785156 21.746094 C 28.601562 21.871094 29.433594 21.890625 30.261719 22.007812 C 30.417969 22.273438 30.570312 22.492188 30.726562 22.707031 C 30.726562 22.707031 30.726562 22.714844 30.746094 22.75 C 30.792969 22.828125 30.832031 22.855469 30.878906 22.867188 Z M 30.878906 22.867188 "/>
<path style=" stroke:none;fill-rule:nonzero;fill:rgb(21.960784%,37.64706%,91.37255%);fill-opacity:1;" d="M 34.230469 12.804688 C 34.285156 13.609375 34.339844 14.414062 34.332031 15.296875 C 33.832031 15.953125 33.394531 16.535156 32.921875 17.132812 C 32.84375 17.183594 32.816406 17.222656 32.800781 17.277344 C 32.800781 17.277344 32.796875 17.28125 32.738281 17.28125 C 32.558594 17.28125 32.441406 17.28125 32.285156 17.300781 C 32.207031 17.347656 32.175781 17.386719 32.089844 17.441406 C 31.691406 17.378906 31.296875 17.414062 31.039062 17.238281 C 30.300781 16.742188 29.871094 16.011719 29.484375 15.199219 C 28.574219 13.300781 27.640625 11.332031 24.996094 11.625 C 26.714844 11.070312 28.210938 11.320312 29.609375 12.457031 C 30.695312 13.34375 31.835938 14.300781 33.492188 13.730469 C 33.769531 13.410156 34 13.105469 34.230469 12.804688 M 32.460938 16.089844 C 32.863281 15.644531 33.269531 15.199219 33.667969 14.753906 C 32.902344 14.691406 32.132812 14.585938 31.359375 14.570312 C 30.738281 14.558594 30.414062 15.199219 30.710938 15.746094 C 31.152344 16.5625 31.359375 16.617188 32.460938 16.089844 Z M 32.460938 16.089844 "/>
<path style=" stroke:none;fill-rule:nonzero;fill:rgb(21.960784%,38.039216%,92.156863%);fill-opacity:1;" d="M 31.03125 25.207031 C 31.417969 25.117188 31.808594 25.023438 32.261719 24.925781 C 32.367188 24.964844 32.402344 25.007812 32.4375 25.144531 C 32.078125 25.835938 31.722656 26.441406 31.304688 27.050781 C 30.253906 27.695312 28.824219 27.472656 27.949219 26.765625 C 27.082031 26.070312 26.164062 25.425781 24.96875 25.4375 C 24.625 24.925781 24.277344 24.414062 23.890625 23.828125 C 23.84375 23.722656 23.835938 23.695312 23.84375 23.605469 C 24.230469 22.945312 24.835938 23.101562 25.261719 23.304688 C 26.324219 23.804688 27.347656 24.394531 28.335938 25.027344 C 28.859375 25.359375 29.636719 25.488281 30.089844 25.117188 C 30.3125 25.132812 30.53125 25.148438 30.835938 25.195312 C 30.914062 25.226562 30.976562 25.238281 30.976562 25.238281 C 30.976562 25.238281 31.03125 25.207031 31.03125 25.207031 Z M 31.03125 25.207031 "/>
<path style=" stroke:none;fill-rule:nonzero;fill:rgb(1.568628%,12.156863%,41.176471%);fill-opacity:1;" d="M 14.574219 27.878906 C 15.199219 27.207031 14.792969 26.464844 14.800781 25.769531 C 14.808594 25.359375 14.804688 24.953125 14.804688 24.542969 C 14.890625 24.535156 14.980469 24.53125 15.066406 24.527344 C 15.136719 24.726562 15.207031 24.929688 15.210938 24.929688 C 15.695312 24.886719 16.136719 24.777344 16.554688 24.828125 C 17.160156 24.898438 18.011719 25.9375 18.082031 26.566406 C 18.09375 26.671875 18.070312 26.808594 18.128906 26.875 C 18.894531 27.746094 19.644531 28.632812 20.457031 29.460938 C 20.621094 29.628906 21.027344 29.558594 21.414062 29.601562 C 21.507812 29.601562 21.574219 29.601562 21.585938 29.671875 C 21.589844 30.0625 21.582031 30.382812 21.542969 30.707031 C 21.519531 30.703125 21.464844 30.695312 21.449219 30.648438 C 20.414062 30.457031 19.4375 30.234375 18.617188 29.535156 C 18.042969 29.042969 17.402344 28.632812 16.765625 28.136719 C 16.636719 28.070312 16.535156 28.050781 16.367188 28.027344 C 16.039062 28.011719 15.777344 27.996094 15.480469 27.941406 C 15.3125 27.996094 15.179688 28.085938 15.023438 28.214844 C 14.910156 28.277344 14.820312 28.304688 14.699219 28.324219 C 14.664062 28.320312 14.59375 28.316406 14.59375 28.316406 C 14.585938 28.289062 14.578125 28.261719 14.5625 28.160156 C 14.550781 28.054688 14.542969 28.027344 14.535156 28 C 14.542969 27.972656 14.550781 27.945312 14.574219 27.878906 M 14.972656 24.882812 C 14.972656 24.882812 14.957031 24.894531 14.972656 24.882812 Z M 14.972656 24.882812 "/>
<path style=" stroke:none;fill-rule:nonzero;fill:rgb(67.843139%,98.431373%,98.823529%);fill-opacity:1;" d="M 29.890625 7.496094 C 28.074219 7.96875 26.207031 8.332031 24.386719 8.84375 C 23.273438 9.15625 22.171875 9.558594 21.058594 9.113281 C 20.320312 8.820312 19.664062 8.300781 19 7.84375 C 18.59375 7.566406 18.238281 7.210938 17.808594 6.875 C 18.085938 6.757812 18.417969 6.664062 18.820312 6.625 C 19.257812 6.929688 19.664062 7.132812 19.972656 7.4375 C 20.714844 8.167969 21.730469 8.402344 22.699219 7.953125 C 23.78125 7.449219 24.847656 6.917969 25.921875 6.398438 C 27.285156 6.554688 28.660156 6.679688 29.890625 7.496094 Z M 29.890625 7.496094 "/>
<path style=" stroke:none;fill-rule:nonzero;fill:rgb(17.647059%,54.509807%,97.647059%);fill-opacity:1;" d="M 14.566406 10.445312 C 14.703125 10.609375 14.871094 10.800781 14.941406 11.023438 C 15.652344 13.203125 17.578125 14.046875 19.652344 13.042969 C 20.308594 12.726562 20.929688 12.335938 21.59375 12.054688 C 21.625 12.199219 21.628906 12.261719 21.617188 12.394531 C 21.59375 12.730469 21.585938 13.003906 21.546875 13.300781 C 21.484375 13.355469 21.457031 13.398438 21.378906 13.445312 C 20.289062 13.335938 19.851562 14.070312 19.355469 14.761719 C 19.03125 15.214844 18.695312 15.757812 18.226562 15.988281 C 17.148438 16.519531 16.242188 15.960938 15.53125 14.542969 C 15.257812 13.996094 14.917969 13.484375 14.59375 12.878906 C 14.5625 12.058594 14.546875 11.3125 14.53125 10.566406 C 14.539062 10.539062 14.546875 10.511719 14.566406 10.445312 Z M 14.566406 10.445312 "/>
<path style=" stroke:none;fill-rule:nonzero;fill:rgb(34.117648%,87.058824%,96.470588%);fill-opacity:1;" d="M 23.679688 21.441406 C 23.601562 21.484375 23.527344 21.527344 23.367188 21.570312 C 23.199219 21.417969 23.121094 21.269531 23.101562 21.121094 C 23.292969 21.101562 23.511719 21.117188 23.539062 21.054688 C 23.792969 20.480469 24.222656 20.59375 24.722656 20.609375 C 25.34375 20.632812 25.96875 20.457031 26.632812 20.386719 C 26.726562 20.480469 26.78125 20.550781 26.855469 20.640625 C 26.890625 20.675781 26.90625 20.683594 26.921875 20.695312 C 26.902344 20.664062 26.878906 20.632812 26.828125 20.574219 C 26.800781 20.546875 26.835938 20.480469 26.875 20.46875 C 26.964844 20.441406 27.007812 20.40625 27.085938 20.351562 C 27.265625 20.382812 27.398438 20.417969 27.566406 20.507812 C 28.269531 20.53125 28.929688 20.5 29.636719 20.429688 C 30.671875 20.09375 31.605469 19.703125 32.230469 18.742188 C 32.644531 18.179688 32.988281 17.621094 33.378906 17.097656 C 33.738281 16.617188 34.144531 16.175781 34.53125 15.714844 C 34.386719 17.714844 33.515625 19.351562 31.96875 20.761719 C 31.550781 21.136719 31.207031 21.4375 30.863281 21.742188 C 30.863281 21.742188 30.878906 21.742188 30.816406 21.746094 C 30.589844 21.820312 30.421875 21.886719 30.257812 21.957031 C 29.433594 21.890625 28.601562 21.871094 27.785156 21.746094 C 26.726562 21.585938 25.679688 21.335938 24.550781 21.082031 C 24.371094 21.109375 24.265625 21.179688 24.160156 21.25 C 24.132812 21.257812 24.101562 21.261719 23.984375 21.277344 C 23.824219 21.339844 23.753906 21.390625 23.679688 21.441406 Z M 23.679688 21.441406 "/>
<path style=" stroke:none;fill-rule:nonzero;fill:rgb(12.941177%,19.215687%,40.000001%);fill-opacity:1;" d="M 20.152344 41.917969 C 20.15625 41.800781 20.164062 41.679688 20.171875 41.425781 C 20.1875 40.121094 20.199219 38.953125 20.210938 37.78125 C 20.609375 37.78125 21.003906 37.78125 21.472656 37.78125 C 21.582031 38.507812 21.691406 39.203125 21.796875 39.898438 C 21.824219 39.902344 21.851562 39.902344 21.878906 39.902344 C 21.984375 39.21875 22.089844 38.539062 22.199219 37.820312 C 22.625 37.820312 23.011719 37.820312 23.457031 37.820312 C 23.457031 39.199219 23.457031 40.566406 23.457031 42.003906 C 23.285156 42.019531 23.085938 42.039062 22.816406 41.988281 C 22.75 41.257812 22.75 40.601562 22.75 39.941406 C 22.695312 39.9375 22.640625 39.933594 22.585938 39.929688 C 22.457031 40.640625 22.328125 41.351562 22.199219 42.0625 C 21.996094 42.058594 21.796875 42.054688 21.527344 41.992188 C 21.335938 41.261719 21.214844 40.59375 21.066406 39.765625 C 20.960938 40.664062 20.882812 41.371094 20.800781 42.082031 C 20.644531 42.070312 20.488281 42.058594 20.265625 42.011719 C 20.199219 41.980469 20.152344 41.917969 20.152344 41.917969 Z M 20.152344 41.917969 "/>
<path style=" stroke:none;fill-rule:nonzero;fill:rgb(14.117648%,30.588236%,89.803922%);fill-opacity:1;" d="M 24.976562 25.492188 C 26.164062 25.425781 27.082031 26.070312 27.949219 26.765625 C 28.824219 27.472656 30.253906 27.695312 31.300781 27.109375 C 31.21875 28.242188 30.335938 28.699219 29.53125 29.28125 C 28.9375 29.34375 28.414062 29.402344 27.917969 29.460938 C 27.71875 29.359375 27.464844 29.226562 27.210938 29.09375 C 26.46875 27.914062 25.726562 26.730469 24.976562 25.492188 Z M 24.976562 25.492188 "/>
<path style=" stroke:none;fill-rule:nonzero;fill:rgb(18.039216%,55.686277%,97.647059%);fill-opacity:1;" d="M 34.222656 12.75 C 34 13.105469 33.769531 13.410156 33.492188 13.667969 C 33.714844 12.558594 33.488281 11.59375 32.59375 10.976562 C 30.695312 9.675781 28.660156 9.121094 26.433594 10.214844 C 25.785156 10.535156 25.074219 10.734375 24.421875 11.046875 C 23.882812 11.308594 23.390625 11.660156 22.808594 11.984375 C 22.46875 11.988281 22.191406 11.984375 21.917969 11.980469 C 22.40625 11.527344 22.835938 10.96875 23.398438 10.644531 C 24.375 10.082031 25.390625 9.417969 26.464844 9.238281 C 28.664062 8.867188 30.933594 8.664062 32.839844 10.308594 C 32.914062 10.371094 33.035156 10.378906 33.191406 10.417969 C 33.25 10.421875 33.257812 10.414062 33.261719 10.464844 C 33.328125 10.582031 33.390625 10.644531 33.453125 10.707031 C 33.707031 11.371094 33.960938 12.03125 34.222656 12.75 Z M 34.222656 12.75 "/>
<path style=" stroke:none;fill-rule:nonzero;fill:rgb(3.137255%,12.941177%,41.176471%);fill-opacity:1;" d="M 32.957031 25.738281 C 33.117188 25.910156 33.277344 26.078125 33.449219 26.363281 C 33.359375 27.640625 33.710938 28.816406 33.082031 29.988281 C 32.765625 30.574219 32.804688 31.269531 31.71875 31.070312 C 31.9375 31.371094 32.050781 31.523438 32.117188 31.726562 C 31.675781 31.800781 31.277344 31.832031 30.878906 31.859375 C 30.199219 31.613281 29.523438 31.371094 28.855469 31.035156 C 29.394531 30.667969 29.921875 30.386719 30.476562 30.105469 C 30.503906 30.105469 30.558594 30.097656 30.617188 30.09375 C 31 29.820312 31.324219 29.550781 31.679688 29.230469 C 31.757812 29.082031 31.808594 28.992188 31.84375 28.890625 C 32.214844 27.839844 32.585938 26.789062 32.957031 25.738281 Z M 32.957031 25.738281 "/>
<path style=" stroke:none;fill-rule:nonzero;fill:rgb(16.470589%,53.725493%,98.039216%);fill-opacity:1;" d="M 21.464844 30.695312 C 21.464844 30.695312 21.519531 30.703125 21.539062 30.761719 C 21.398438 31.046875 21.234375 31.273438 21.070312 31.5 C 21.070312 31.5 21.011719 31.492188 20.921875 31.496094 C 20.664062 31.519531 20.496094 31.539062 20.324219 31.554688 C 20.253906 31.554688 20.179688 31.554688 20.039062 31.523438 C 19.941406 31.519531 19.910156 31.542969 19.878906 31.570312 C 19.878906 31.570312 19.867188 31.570312 19.789062 31.546875 C 18.386719 31.390625 17.058594 31.25 15.734375 31.113281 C 15.027344 30.835938 14.878906 30.1875 14.765625 29.460938 C 15.234375 29.261719 15.71875 28.96875 16.042969 29.09375 C 16.882812 29.421875 17.710938 29.855469 18.429688 30.398438 C 19.421875 31.140625 20.386719 31.273438 21.464844 30.695312 Z M 21.464844 30.695312 "/>
<path style=" stroke:none;fill-rule:nonzero;fill:rgb(14.509805%,20.784314%,41.176471%);fill-opacity:1;" d="M 10.871094 41.957031 C 10.691406 41.957031 10.511719 41.957031 10.316406 41.957031 C 10.316406 40.578125 10.316406 39.21875 10.316406 37.734375 C 10.921875 37.796875 11.464844 37.851562 12.089844 37.984375 C 12.226562 38.335938 12.316406 38.613281 12.324219 38.894531 C 12.339844 39.601562 12.347656 40.3125 12.292969 41.019531 C 12.265625 41.378906 12.101562 41.730469 12 42.089844 C 11.886719 42.078125 11.777344 42.070312 11.59375 41.988281 C 11.492188 41.332031 11.460938 40.746094 11.429688 40.160156 C 11.335938 40.167969 11.242188 40.175781 11.148438 40.183594 C 11.148438 40.566406 11.179688 40.953125 11.136719 41.332031 C 11.109375 41.546875 10.964844 41.75 10.871094 41.957031 Z M 10.871094 41.957031 "/>
<path style=" stroke:none;fill-rule:nonzero;fill:rgb(3.529412%,11.372549%,35.294119%);fill-opacity:1;" d="M 32.164062 31.679688 C 32.050781 31.523438 31.9375 31.371094 31.71875 31.070312 C 32.804688 31.269531 32.765625 30.574219 33.082031 29.988281 C 33.710938 28.816406 33.359375 27.640625 33.457031 26.410156 C 33.828125 26.820312 34.214844 27.28125 34.5625 27.769531 C 35.414062 28.964844 35.410156 29.007812 34.519531 30.355469 C 33.832031 31.105469 33.113281 31.609375 32.164062 31.679688 Z M 32.164062 31.679688 "/>
<path style=" stroke:none;fill-rule:nonzero;fill:rgb(81.568629%,99.215686%,99.215686%);fill-opacity:1;" d="M 25.875 6.355469 C 24.847656 6.917969 23.78125 7.449219 22.699219 7.953125 C 21.730469 8.402344 20.714844 8.167969 19.972656 7.4375 C 19.664062 7.132812 19.257812 6.929688 18.882812 6.628906 C 21.179688 6.148438 23.503906 6.128906 25.875 6.355469 M 22.664062 6.570312 C 22.226562 6.566406 21.789062 6.527344 21.359375 6.578125 C 21.171875 6.601562 21.003906 6.800781 20.824219 6.921875 C 20.980469 7.109375 21.140625 7.46875 21.289062 7.460938 C 21.839844 7.4375 22.425781 7.382812 22.925781 7.171875 C 23.382812 6.980469 23.316406 6.667969 22.664062 6.570312 Z M 22.664062 6.570312 "/>
<path style=" stroke:none;fill-rule:nonzero;fill:rgb(10.196079%,15.686275%,37.254903%);fill-opacity:1;" d="M 31.675781 38.558594 C 31.695312 38.328125 31.710938 38.097656 31.734375 37.796875 C 32.152344 37.796875 32.570312 37.796875 33.054688 37.855469 C 33.171875 37.972656 33.222656 38.023438 33.273438 38.078125 C 33.28125 38.429688 33.289062 38.78125 33.34375 39.238281 C 33.414062 39.515625 33.4375 39.675781 33.449219 39.894531 C 33.453125 40.015625 33.460938 40.085938 33.464844 40.230469 C 33.449219 40.894531 33.445312 41.484375 33.441406 42.078125 C 33.15625 42.058594 32.769531 42.230469 32.777344 41.675781 C 32.78125 41.574219 32.535156 41.46875 32.40625 41.363281 C 32.324219 41.480469 32.269531 41.640625 32.15625 41.699219 C 31.941406 41.8125 31.699219 41.867188 31.4375 41.871094 C 31.5 40.714844 31.589844 39.636719 31.675781 38.558594 M 33.03125 40.238281 C 33.0625 39.746094 33.097656 39.253906 33.132812 38.664062 C 32.859375 39.445312 32.628906 40.101562 32.398438 40.753906 C 32.453125 40.78125 32.503906 40.808594 32.558594 40.835938 C 32.683594 40.664062 32.8125 40.496094 33.03125 40.238281 M 32.617188 38.273438 C 32.609375 38.332031 32.597656 38.394531 32.585938 38.453125 C 32.660156 38.429688 32.730469 38.402344 32.804688 38.375 C 32.769531 38.335938 32.734375 38.296875 32.617188 38.273438 M 32.527344 38.878906 C 32.515625 38.84375 32.503906 38.804688 32.492188 38.765625 C 32.449219 38.808594 32.40625 38.851562 32.363281 38.894531 C 32.402344 38.90625 32.441406 38.917969 32.527344 38.878906 Z M 32.527344 38.878906 "/>
<path style=" stroke:none;fill-rule:nonzero;fill:rgb(13.333334%,30.588236%,87.843138%);fill-opacity:1;" d="M 21.449219 30.648438 C 20.386719 31.273438 19.421875 31.140625 18.429688 30.398438 C 17.710938 29.855469 16.882812 29.421875 16.042969 29.09375 C 15.71875 28.96875 15.234375 29.261719 14.78125 29.402344 C 14.683594 29.164062 14.628906 28.890625 14.617188 28.539062 C 14.695312 28.421875 14.722656 28.378906 14.734375 28.328125 C 14.820312 28.304688 14.910156 28.277344 15.070312 28.207031 C 15.269531 28.101562 15.394531 28.039062 15.515625 27.980469 C 15.777344 27.996094 16.039062 28.011719 16.402344 28.0625 C 16.601562 28.128906 16.695312 28.15625 16.792969 28.1875 C 17.402344 28.632812 18.042969 29.042969 18.617188 29.535156 C 19.4375 30.234375 20.414062 30.457031 21.449219 30.648438 Z M 21.449219 30.648438 "/>
<path style=" stroke:none;fill-rule:nonzero;fill:rgb(10.980392%,17.647059%,38.82353%);fill-opacity:1;" d="M 15.078125 38.101562 C 15.515625 38.023438 15.953125 37.945312 16.460938 37.910156 C 16.71875 38.269531 16.902344 38.589844 17.085938 38.90625 C 17.015625 38.96875 16.941406 39.027344 16.871094 39.085938 C 16.585938 38.996094 16.300781 38.902344 16.015625 38.8125 C 15.964844 38.863281 15.917969 38.914062 15.871094 38.96875 C 16.226562 39.3125 16.582031 39.660156 16.9375 40.007812 C 16.988281 40.183594 17.109375 40.371094 17.078125 40.53125 C 16.988281 40.996094 16.972656 41.625 16.671875 41.855469 C 16.390625 42.066406 15.78125 41.847656 15.265625 41.722656 C 15.140625 41.273438 15.074219 40.921875 14.996094 40.511719 C 15.324219 40.511719 15.550781 40.511719 15.761719 40.511719 C 15.84375 40.796875 15.914062 41.046875 15.980469 41.296875 C 16.09375 41.257812 16.210938 41.21875 16.324219 41.179688 C 16.179688 40.855469 16.113281 40.4375 15.871094 40.222656 C 15.210938 39.636719 14.929688 38.964844 15.078125 38.101562 Z M 15.078125 38.101562 "/>
<path style=" stroke:none;fill-rule:nonzero;fill:rgb(15.686275%,21.960784%,42.352942%);fill-opacity:1;" d="M 14.640625 41.769531 C 14.285156 41.871094 13.929688 41.96875 13.445312 42.066406 C 12.8125 42.117188 12.847656 41.78125 12.851562 41.445312 C 12.851562 40.246094 12.84375 39.050781 12.839844 37.851562 C 13.351562 37.828125 13.863281 37.804688 14.457031 37.851562 C 14.539062 38.121094 14.539062 38.328125 14.539062 38.542969 C 14.261719 38.59375 14.015625 38.640625 13.824219 38.675781 C 13.476562 39.480469 14.0625 39.46875 14.535156 39.523438 C 14.523438 39.785156 14.511719 39.984375 14.5 40.210938 C 14.242188 40.242188 14.019531 40.269531 13.742188 40.308594 C 13.753906 40.621094 13.765625 40.894531 13.777344 41.167969 C 13.851562 41.128906 13.921875 41.085938 13.996094 41.046875 C 14.210938 41.289062 14.425781 41.527344 14.640625 41.769531 Z M 14.640625 41.769531 "/>
<path style=" stroke:none;fill-rule:nonzero;fill:rgb(17.254902%,22.352941%,43.137255%);fill-opacity:1;" d="M 34.242188 42.078125 C 34.242188 42.078125 34.183594 42.027344 34.144531 41.949219 C 34.089844 40.714844 34.074219 39.554688 34.058594 38.398438 C 34.039062 38.230469 34.015625 38.066406 33.980469 37.777344 C 34.546875 37.777344 35.101562 37.777344 35.738281 37.84375 C 35.820312 38.128906 35.820312 38.351562 35.820312 38.582031 C 35.636719 38.601562 35.519531 38.582031 35.433594 38.628906 C 35.277344 38.710938 35.140625 38.828125 34.992188 38.933594 C 35.140625 39.058594 35.277344 39.207031 35.445312 39.308594 C 35.546875 39.371094 35.695312 39.367188 35.816406 39.453125 C 35.8125 39.675781 35.820312 39.839844 35.800781 40.027344 C 35.773438 40.050781 35.765625 40.117188 35.742188 40.113281 C 35.714844 40.109375 35.679688 40.148438 35.621094 40.140625 C 35.441406 40.144531 35.320312 40.15625 35.148438 40.164062 C 35.078125 40.210938 35.054688 40.265625 35.019531 40.390625 C 35 40.96875 35 41.472656 34.996094 41.980469 C 34.996094 41.980469 34.925781 42.011719 34.863281 42.035156 C 34.773438 42.074219 34.746094 42.085938 34.722656 42.09375 C 34.648438 42.085938 34.578125 42.074219 34.414062 42.066406 C 34.292969 42.070312 34.265625 42.074219 34.242188 42.078125 Z M 34.242188 42.078125 "/>
<path style=" stroke:none;fill-rule:nonzero;fill:rgb(12.54902%,18.431373%,40.392157%);fill-opacity:1;" d="M 28.988281 41.765625 C 28.964844 41.4375 28.941406 41.109375 28.925781 40.65625 C 28.921875 40.402344 28.914062 40.277344 28.90625 40.152344 C 28.917969 39.671875 28.925781 39.1875 29.003906 38.617188 C 29.039062 38.378906 29.007812 38.226562 28.976562 38.078125 C 29.402344 37.464844 30.089844 37.703125 30.457031 37.910156 C 30.78125 38.089844 30.859375 38.765625 30.960938 39.238281 C 31 39.425781 30.800781 39.660156 30.6875 39.96875 C 30.640625 40.304688 30.621094 40.546875 30.597656 40.785156 C 30.53125 40.789062 30.460938 40.789062 30.390625 40.792969 C 30.28125 40.519531 30.171875 40.242188 30.113281 40.089844 C 29.84375 40.074219 29.660156 40.0625 29.375 40.046875 C 29.398438 40.414062 29.261719 41.035156 29.476562 41.199219 C 29.976562 41.585938 29.613281 41.757812 29.449219 42.019531 C 29.375 42.03125 29.300781 42.039062 29.171875 41.996094 C 29.070312 41.882812 29.03125 41.824219 28.988281 41.765625 M 29.789062 39.21875 C 29.839844 39.339844 29.886719 39.460938 29.933594 39.582031 C 29.992188 39.519531 30.046875 39.460938 30.101562 39.398438 C 29.980469 39.316406 29.855469 39.234375 29.789062 39.21875 Z M 29.789062 39.21875 "/>
<path style=" stroke:none;fill-rule:nonzero;fill:rgb(21.176471%,54.901963%,96.862745%);fill-opacity:1;" d="M 30.050781 25.074219 C 29.636719 25.488281 28.859375 25.359375 28.335938 25.027344 C 27.347656 24.394531 26.324219 23.804688 25.261719 23.304688 C 24.835938 23.101562 24.230469 22.945312 23.789062 23.59375 C 23.546875 23.640625 23.367188 23.636719 23.191406 23.636719 C 23.070312 23.605469 22.953125 23.578125 22.792969 23.492188 C 22.789062 23.347656 22.820312 23.257812 22.851562 23.171875 C 23.527344 22.34375 24.398438 22.101562 25.421875 22.585938 C 26.273438 22.988281 27.054688 23.53125 27.882812 23.980469 C 28.582031 24.355469 29.304688 24.683594 30.050781 25.074219 Z M 30.050781 25.074219 "/>
<path style=" stroke:none;fill-rule:nonzero;fill:rgb(18.431373%,23.529412%,44.313726%);fill-opacity:1;" d="M 36.199219 37.777344 C 36.773438 37.777344 37.351562 37.777344 37.890625 37.777344 C 37.78125 38.875 37.671875 39.925781 37.566406 41.113281 C 37.542969 41.503906 37.523438 41.757812 37.5 42.058594 C 37.191406 42.042969 36.960938 42.03125 36.625 42.015625 C 36.625 41.046875 36.625 40.125 36.640625 39.148438 C 36.640625 39.023438 36.632812 38.953125 36.625 38.820312 C 36.121094 38.589844 36.113281 38.203125 36.199219 37.777344 Z M 36.199219 37.777344 "/>
<path style=" stroke:none;fill-rule:nonzero;fill:rgb(7.450981%,13.333334%,37.64706%);fill-opacity:1;" d="M 28.378906 40.644531 C 28.359375 40.824219 28.335938 41.003906 28.320312 41.1875 C 28.261719 41.960938 27.90625 42.191406 27.050781 41.921875 C 26.726562 41.644531 26.523438 41.375 26.324219 41.101562 C 26.332031 40.304688 26.339844 39.511719 26.371094 38.601562 C 26.394531 38.457031 26.394531 38.429688 26.390625 38.398438 C 26.726562 38.1875 27.066406 37.976562 27.46875 37.828125 C 27.777344 38.011719 28.019531 38.128906 28.261719 38.246094 C 28.28125 38.414062 28.300781 38.582031 28.285156 38.855469 C 28.003906 38.777344 27.753906 38.59375 27.449219 38.386719 C 27.308594 38.375 27.148438 38.386719 27.148438 38.398438 C 27.136719 39.398438 27.136719 40.398438 27.136719 41.402344 C 27.21875 41.40625 27.296875 41.410156 27.375 41.414062 C 27.449219 41.050781 27.523438 40.6875 27.632812 40.15625 C 27.910156 40.339844 28.144531 40.492188 28.378906 40.644531 Z M 28.378906 40.644531 "/>
<path style=" stroke:none;fill-rule:nonzero;fill:rgb(11.372549%,26.274511%,76.862746%);fill-opacity:1;" d="M 32.941406 25.691406 C 32.585938 26.789062 32.214844 27.839844 31.84375 28.890625 C 31.808594 28.992188 31.757812 29.082031 31.617188 29.230469 C 31.042969 29.441406 30.5625 29.601562 30.019531 29.757812 C 29.839844 29.597656 29.71875 29.441406 29.601562 29.28125 C 30.335938 28.699219 31.21875 28.242188 31.363281 27.105469 C 31.722656 26.441406 32.078125 25.835938 32.457031 25.183594 C 32.625 25.300781 32.777344 25.472656 32.941406 25.691406 Z M 32.941406 25.691406 "/>
<path style=" stroke:none;fill-rule:nonzero;fill:rgb(89.803922%,90.980393%,93.725491%);fill-opacity:1;" d="M 14.699219 41.769531 C 14.425781 41.527344 14.210938 41.289062 13.996094 41.046875 C 13.921875 41.085938 13.851562 41.128906 13.777344 41.167969 C 13.765625 40.894531 13.753906 40.621094 13.742188 40.308594 C 14.019531 40.269531 14.242188 40.242188 14.5 40.210938 C 14.511719 39.984375 14.523438 39.785156 14.535156 39.523438 C 14.0625 39.46875 13.476562 39.480469 13.824219 38.675781 C 14.015625 38.640625 14.261719 38.59375 14.539062 38.542969 C 14.539062 38.328125 14.539062 38.121094 14.527344 37.847656 C 14.667969 37.871094 14.824219 37.964844 15.027344 38.078125 C 14.929688 38.964844 15.210938 39.636719 15.871094 40.222656 C 16.113281 40.4375 16.179688 40.855469 16.324219 41.179688 C 16.210938 41.21875 16.09375 41.257812 15.980469 41.296875 C 15.914062 41.046875 15.84375 40.796875 15.761719 40.511719 C 15.550781 40.511719 15.324219 40.511719 14.996094 40.511719 C 15.074219 40.921875 15.140625 41.273438 15.214844 41.691406 C 15.066406 41.757812 14.910156 41.761719 14.699219 41.769531 Z M 14.699219 41.769531 "/>
<path style=" stroke:none;fill-rule:nonzero;fill:rgb(22.745098%,56.862748%,95.686275%);fill-opacity:1;" d="M 15.222656 32 C 15.089844 32.429688 15.015625 32.886719 14.8125 33.285156 C 14.640625 33.621094 14.378906 33.996094 14.058594 34.152344 C 13.800781 34.277344 13.398438 34.105469 13.058594 34.066406 C 13.132812 33.742188 13.136719 33.378906 13.292969 33.097656 C 13.570312 32.597656 13.953125 32.164062 14.261719 31.679688 C 14.496094 31.304688 14.714844 31.003906 15.179688 31.527344 C 15.207031 31.757812 15.214844 31.878906 15.222656 32 Z M 15.222656 32 "/>
<path style=" stroke:none;fill-rule:nonzero;fill:rgb(95.686275%,96.470588%,96.078432%);fill-opacity:1;" d="M 36.625 39.199219 C 36.625 40.125 36.625 41.046875 36.625 42.015625 C 36.960938 42.03125 37.191406 42.042969 37.5 42.058594 C 37.523438 41.757812 37.542969 41.503906 37.582031 41.183594 C 38.070312 41.078125 38.164062 41.394531 38.058594 41.722656 C 37.976562 41.972656 37.761719 42.316406 37.546875 42.363281 C 37.15625 42.449219 36.726562 42.324219 36.3125 42.324219 C 35.960938 42.328125 35.582031 41.769531 35.257812 42.371094 C 35.179688 42.277344 35.101562 42.1875 35.007812 42.035156 C 35 41.472656 35 40.96875 35.054688 40.375 C 35.148438 40.257812 35.179688 40.21875 35.199219 40.167969 C 35.320312 40.15625 35.441406 40.144531 35.601562 40.1875 C 35.632812 40.335938 35.617188 40.433594 35.605469 40.527344 C 35.671875 40.523438 35.796875 40.515625 35.796875 40.507812 C 35.796875 40.378906 35.78125 40.246094 35.765625 40.117188 C 35.765625 40.117188 35.773438 40.050781 35.84375 40.003906 C 36.15625 39.707031 36.390625 39.453125 36.625 39.199219 M 35.609375 40.894531 C 35.605469 41.363281 35.605469 41.363281 36.140625 41.320312 C 35.976562 41.148438 35.847656 41.007812 35.609375 40.894531 Z M 35.609375 40.894531 "/>
<path style=" stroke:none;fill-rule:nonzero;fill:rgb(10.980392%,17.647059%,38.82353%);fill-opacity:1;" d="M 24.15625 38.722656 C 24.132812 38.441406 24.105469 38.160156 24.078125 37.828125 C 24.65625 37.828125 25.148438 37.828125 25.644531 37.828125 C 25.84375 38.613281 25.839844 38.621094 24.785156 38.847656 C 25.199219 39.285156 25.535156 39.636719 26.015625 40.144531 C 25.503906 40.226562 25.261719 40.265625 25.019531 40.304688 C 24.964844 40.628906 24.910156 40.933594 24.882812 41.3125 C 24.765625 41.460938 24.625 41.53125 24.480469 41.539062 C 24.480469 40.4375 24.480469 39.402344 24.480469 38.289062 C 24.335938 38.484375 24.246094 38.605469 24.15625 38.722656 Z M 24.15625 38.722656 "/>
<path style=" stroke:none;fill-rule:nonzero;fill:rgb(12.156863%,27.058825%,78.039217%);fill-opacity:1;" d="M 29.53125 29.28125 C 29.71875 29.441406 29.839844 29.597656 30.019531 29.757812 C 30.078125 29.761719 30.082031 29.761719 30.089844 29.816406 C 30.214844 29.949219 30.332031 30.027344 30.445312 30.105469 C 29.921875 30.386719 29.394531 30.667969 28.824219 30.988281 C 28.265625 30.421875 27.75 29.8125 27.222656 29.148438 C 27.464844 29.226562 27.71875 29.359375 27.917969 29.460938 C 28.414062 29.402344 28.9375 29.34375 29.53125 29.28125 Z M 29.53125 29.28125 "/>
<path style=" stroke:none;fill-rule:nonzero;fill:rgb(94.901961%,96.470588%,96.862745%);fill-opacity:1;" d="M 12.828125 37.785156 C 12.84375 39.050781 12.851562 40.246094 12.851562 41.445312 C 12.847656 41.78125 12.8125 42.117188 13.378906 42.078125 C 13.011719 42.605469 12.535156 42.351562 12.035156 42.132812 C 12.101562 41.730469 12.265625 41.378906 12.292969 41.019531 C 12.347656 40.3125 12.339844 39.601562 12.324219 38.894531 C 12.316406 38.613281 12.226562 38.335938 12.148438 38 C 12.1875 37.734375 12.25 37.53125 12.367188 37.136719 C 12.566406 37.390625 12.691406 37.554688 12.828125 37.785156 Z M 12.828125 37.785156 "/>
<path style=" stroke:none;fill-rule:nonzero;fill:rgb(92.156863%,94.117647%,96.862745%);fill-opacity:1;" d="M 28.429688 40.644531 C 28.144531 40.492188 27.910156 40.339844 27.632812 40.15625 C 27.523438 40.6875 27.449219 41.050781 27.375 41.414062 C 27.296875 41.410156 27.21875 41.40625 27.136719 41.402344 C 27.136719 40.398438 27.136719 39.398438 27.148438 38.398438 C 27.148438 38.386719 27.308594 38.375 27.457031 38.453125 C 27.519531 38.84375 27.519531 39.144531 27.519531 39.488281 C 27.890625 39.488281 28.144531 39.488281 28.398438 39.488281 C 28.53125 39.699219 28.667969 39.910156 28.851562 40.136719 C 28.914062 40.277344 28.921875 40.402344 28.910156 40.585938 C 28.757812 40.644531 28.617188 40.644531 28.429688 40.644531 Z M 28.429688 40.644531 "/>
<path style=" stroke:none;fill-rule:nonzero;fill:rgb(12.941177%,19.215687%,40.000001%);fill-opacity:1;" d="M 29.519531 42.035156 C 29.613281 41.757812 29.976562 41.585938 29.476562 41.199219 C 29.261719 41.035156 29.398438 40.414062 29.375 40.046875 C 29.660156 40.0625 29.84375 40.074219 30.113281 40.089844 C 30.171875 40.242188 30.28125 40.519531 30.390625 40.792969 C 30.460938 40.789062 30.53125 40.789062 30.597656 40.785156 C 30.621094 40.546875 30.640625 40.304688 30.699219 40.03125 C 30.734375 39.992188 30.792969 40.003906 30.839844 40.078125 C 30.828125 40.796875 30.773438 41.4375 30.71875 42.078125 C 30.34375 42.070312 29.964844 42.0625 29.519531 42.035156 M 29.644531 40.929688 C 29.660156 40.957031 29.679688 40.980469 29.699219 41.007812 C 29.695312 40.972656 29.691406 40.9375 29.644531 40.929688 Z M 29.644531 40.929688 "/>
<path style=" stroke:none;fill-rule:nonzero;fill:rgb(90.588236%,91.764706%,94.509804%);fill-opacity:1;" d="M 16.984375 39.984375 C 16.582031 39.660156 16.226562 39.3125 15.871094 38.96875 C 15.917969 38.914062 15.964844 38.863281 16.015625 38.8125 C 16.300781 38.902344 16.585938 38.996094 16.871094 39.085938 C 16.941406 39.027344 17.015625 38.96875 17.085938 38.90625 C 16.902344 38.589844 16.71875 38.269531 16.523438 37.890625 C 16.769531 37.742188 17.023438 37.65625 17.28125 37.570312 C 17.292969 37.484375 17.300781 37.394531 17.3125 37.308594 C 17.40625 37.4375 17.503906 37.5625 17.597656 37.8125 C 17.609375 38.25 17.617188 38.5625 17.613281 38.945312 C 17.609375 39.34375 17.613281 39.671875 17.609375 40.054688 C 17.605469 40.179688 17.613281 40.25 17.609375 40.386719 C 17.585938 40.621094 17.574219 40.792969 17.5625 40.964844 C 17.5 40.535156 17.4375 40.109375 17.367188 39.65625 C 17.253906 39.761719 17.144531 39.863281 16.984375 39.984375 Z M 16.984375 39.984375 "/>
<path style=" stroke:none;fill-rule:nonzero;fill:rgb(93.725491%,95.294118%,95.686275%);fill-opacity:1;" d="M 32.117188 31.726562 C 33.113281 31.609375 33.832031 31.105469 34.503906 30.410156 C 34.703125 31.132812 34.3125 31.613281 33.640625 31.898438 C 32.714844 32.292969 31.828125 32.238281 30.894531 31.917969 C 31.277344 31.832031 31.675781 31.800781 32.117188 31.726562 Z M 32.117188 31.726562 "/>
<path style=" stroke:none;fill-rule:nonzero;fill:rgb(94.901961%,96.470588%,96.862745%);fill-opacity:1;" d="M 33.996094 38.402344 C 34.074219 39.554688 34.089844 40.714844 34.105469 41.941406 C 34.015625 42.476562 33.796875 42.492188 33.464844 42.128906 C 33.445312 41.484375 33.449219 40.894531 33.507812 40.222656 C 33.605469 40.089844 33.652344 40.039062 33.695312 39.988281 C 33.617188 39.9375 33.539062 39.890625 33.460938 39.839844 C 33.4375 39.675781 33.414062 39.515625 33.386719 39.289062 C 33.566406 38.953125 33.75 38.679688 33.996094 38.402344 Z M 33.996094 38.402344 "/>
<path style=" stroke:none;fill-rule:nonzero;fill:rgb(94.509804%,98.823529%,99.607843%);fill-opacity:1;" d="M 14.488281 10.617188 C 14.546875 11.3125 14.5625 12.058594 14.582031 12.957031 C 14.585938 16.574219 14.589844 20.046875 14.582031 23.578125 C 14.578125 23.757812 14.589844 23.875 14.597656 23.996094 C 14.589844 24.117188 14.578125 24.238281 14.554688 24.421875 C 14.539062 24.480469 14.46875 24.480469 14.433594 24.40625 C 14.398438 20.539062 14.398438 16.75 14.398438 12.960938 C 14.414062 12.195312 14.433594 11.433594 14.488281 10.617188 Z M 14.488281 10.617188 "/>
<path style=" stroke:none;fill-rule:nonzero;fill:rgb(15.686275%,21.960784%,42.352942%);fill-opacity:1;" d="M 18.867188 38.402344 C 18.847656 38.230469 18.828125 38.054688 18.796875 37.789062 C 19.0625 37.789062 19.28125 37.789062 19.570312 37.859375 C 19.652344 39.039062 19.660156 40.148438 19.671875 41.257812 C 19.671875 41.257812 19.609375 41.296875 19.550781 41.273438 C 19.34375 41.253906 19.199219 41.257812 19.050781 41.226562 C 19.046875 41.191406 19.042969 41.121094 19.042969 41.050781 C 19.089844 40.53125 19.195312 40.082031 19.167969 39.640625 C 19.140625 39.222656 19.519531 38.675781 18.867188 38.402344 Z M 18.867188 38.402344 "/>
<path style=" stroke:none;fill-rule:nonzero;fill:rgb(99.607843%,99.215686%,92.54902%);fill-opacity:1;" d="M 14.351562 13.007812 C 14.398438 16.75 14.398438 20.539062 14.398438 24.402344 C 14.347656 24.28125 14.246094 24.085938 14.246094 23.890625 C 14.238281 20.382812 14.238281 16.871094 14.242188 13.363281 C 14.242188 13.261719 14.28125 13.15625 14.351562 13.007812 Z M 14.351562 13.007812 "/>
<path style=" stroke:none;fill-rule:nonzero;fill:rgb(96.078432%,96.862745%,97.647059%);fill-opacity:1;" d="M 19.699219 41.304688 C 19.660156 40.148438 19.652344 39.039062 19.632812 37.855469 C 19.769531 37.777344 19.917969 37.773438 20.140625 37.773438 C 20.199219 38.953125 20.1875 40.121094 20.160156 41.367188 C 20.007812 41.410156 19.867188 41.378906 19.699219 41.304688 Z M 19.699219 41.304688 "/>
<path style=" stroke:none;fill-rule:nonzero;fill:rgb(89.803922%,90.980393%,93.725491%);fill-opacity:1;" d="M 30.726562 42.125 C 30.773438 41.4375 30.828125 40.796875 30.867188 40.085938 C 31.101562 39.554688 31.347656 39.097656 31.632812 38.601562 C 31.589844 39.636719 31.5 40.714844 31.394531 41.855469 C 31.164062 42 30.949219 42.085938 30.726562 42.125 Z M 30.726562 42.125 "/>
<path style=" stroke:none;fill-rule:nonzero;fill:rgb(37.254903%,82.745099%,96.078432%);fill-opacity:1;" d="M 22.796875 23.167969 C 22.820312 23.257812 22.789062 23.347656 22.734375 23.472656 C 22.480469 23.542969 22.25 23.566406 21.957031 23.582031 C 21.894531 23.574219 21.921875 23.523438 21.949219 23.464844 C 22.128906 22.703125 22.285156 22 22.441406 21.296875 C 22.554688 21.191406 22.667969 21.089844 22.863281 20.988281 C 22.976562 21.035156 23.007812 21.078125 23.039062 21.121094 C 23.121094 21.269531 23.199219 21.417969 23.324219 21.585938 C 23.296875 21.65625 23.226562 21.707031 23.066406 21.761719 C 22.933594 21.785156 22.882812 21.800781 22.835938 21.820312 C 22.898438 21.851562 22.960938 21.886719 23.023438 21.917969 C 22.929688 22.335938 22.835938 22.75 22.796875 23.167969 Z M 22.796875 23.167969 "/>
<path style=" stroke:none;fill-rule:nonzero;fill:rgb(93.333334%,97.647059%,100%);fill-opacity:1;" d="M 21.136719 31.507812 C 21.234375 31.273438 21.398438 31.046875 21.566406 30.761719 C 21.582031 30.382812 21.589844 30.0625 21.597656 29.597656 C 21.585938 27.582031 21.574219 25.714844 21.5625 23.84375 C 21.578125 23.78125 21.589844 23.71875 21.664062 23.609375 C 21.789062 23.542969 21.855469 23.535156 21.921875 23.523438 C 21.921875 23.523438 21.894531 23.574219 21.890625 23.601562 C 21.882812 23.882812 21.878906 24.132812 21.851562 24.480469 C 21.804688 26.640625 21.785156 28.707031 21.777344 30.773438 C 21.773438 30.863281 21.867188 30.953125 21.917969 31.042969 C 21.957031 31.617188 21.550781 31.515625 21.136719 31.507812 Z M 21.136719 31.507812 "/>
<path style=" stroke:none;fill-rule:nonzero;fill:rgb(8.235294%,17.254902%,41.176471%);fill-opacity:1;" d="M 17.621094 40.324219 C 17.613281 40.25 17.605469 40.179688 17.667969 40.046875 C 18.332031 39.636719 18.074219 39.171875 17.898438 38.667969 C 17.917969 38.5 17.957031 38.386719 17.996094 38.273438 C 18.074219 38.410156 18.222656 38.546875 18.226562 38.6875 C 18.25 39.605469 18.238281 40.519531 18.257812 41.484375 C 18.316406 41.648438 18.359375 41.773438 18.402344 41.894531 C 18.15625 41.824219 17.707031 42.164062 17.746094 41.445312 C 17.710938 40.996094 17.667969 40.660156 17.621094 40.324219 Z M 17.621094 40.324219 "/>
<path style=" stroke:none;fill-rule:nonzero;fill:rgb(99.607843%,99.215686%,92.54902%);fill-opacity:1;" d="M 15.261719 32.019531 C 15.214844 31.878906 15.207031 31.757812 15.210938 31.578125 C 15.402344 31.460938 15.582031 31.410156 15.859375 31.355469 C 16.019531 31.402344 16.085938 31.445312 16.160156 31.519531 C 16.21875 31.546875 16.269531 31.546875 16.371094 31.539062 C 16.550781 31.574219 16.679688 31.609375 16.832031 31.695312 C 17.105469 31.734375 17.347656 31.726562 17.652344 31.710938 C 17.832031 31.707031 17.957031 31.714844 18.078125 31.722656 C 18.449219 31.785156 18.820312 31.851562 19.191406 31.914062 C 19.191406 31.941406 19.191406 31.972656 19.1875 32 C 18.070312 32 16.949219 32 15.746094 31.976562 C 15.648438 31.945312 15.636719 31.9375 15.621094 31.929688 C 15.640625 31.953125 15.660156 31.976562 15.679688 32 C 15.554688 32.015625 15.429688 32.027344 15.261719 32.019531 Z M 15.261719 32.019531 "/>
<path style=" stroke:none;fill-rule:nonzero;fill:rgb(12.156863%,34.901962%,88.235295%);fill-opacity:1;" d="M 34.539062 15.664062 C 34.144531 16.175781 33.738281 16.617188 33.378906 17.097656 C 32.988281 17.621094 32.644531 18.179688 32.230469 18.679688 C 32.226562 18.398438 32.273438 18.160156 32.378906 17.914062 C 32.550781 17.699219 32.675781 17.488281 32.796875 17.28125 C 32.796875 17.28125 32.800781 17.277344 32.835938 17.261719 C 32.917969 17.210938 32.945312 17.167969 32.957031 17.113281 C 33.394531 16.535156 33.832031 15.953125 34.320312 15.367188 C 34.433594 15.445312 34.488281 15.527344 34.539062 15.664062 Z M 34.539062 15.664062 "/>
<path style=" stroke:none;fill-rule:nonzero;fill:rgb(10.196079%,15.686275%,37.254903%);fill-opacity:1;" d="M 18.242188 41.4375 C 18.238281 40.519531 18.25 39.605469 18.226562 38.6875 C 18.222656 38.546875 18.074219 38.410156 17.996094 38.273438 C 17.957031 38.386719 17.917969 38.5 17.859375 38.683594 C 17.769531 38.792969 17.699219 38.835938 17.628906 38.878906 C 17.617188 38.5625 17.609375 38.25 17.609375 37.871094 C 17.847656 37.800781 18.078125 37.800781 18.402344 37.800781 C 18.402344 38.804688 18.386719 39.773438 18.417969 40.742188 C 18.421875 40.898438 18.636719 41.046875 18.847656 41.160156 C 18.976562 41.121094 19.011719 41.121094 19.042969 41.121094 C 19.042969 41.121094 19.046875 41.191406 19.011719 41.273438 C 18.726562 41.382812 18.484375 41.410156 18.242188 41.4375 Z M 18.242188 41.4375 "/>
<path style=" stroke:none;fill-rule:nonzero;fill:rgb(95.686275%,96.470588%,96.078432%);fill-opacity:1;" d="M 36.132812 37.773438 C 36.113281 38.203125 36.121094 38.589844 36.570312 38.824219 C 36.285156 39.058594 36.050781 39.226562 35.820312 39.390625 C 35.695312 39.367188 35.546875 39.371094 35.445312 39.308594 C 35.277344 39.207031 35.140625 39.058594 34.992188 38.933594 C 35.140625 38.828125 35.277344 38.710938 35.433594 38.628906 C 35.519531 38.582031 35.636719 38.601562 35.820312 38.582031 C 35.820312 38.351562 35.820312 38.128906 35.808594 37.84375 C 35.890625 37.773438 35.976562 37.769531 36.132812 37.773438 Z M 36.132812 37.773438 "/>
<path style=" stroke:none;fill-rule:nonzero;fill:rgb(42.352942%,90.196079%,95.686275%);fill-opacity:1;" d="M 14.011719 30.992188 C 13.574219 31.191406 13.148438 31.429688 12.984375 30.785156 C 12.953125 30.664062 13.109375 30.382812 13.214844 30.359375 C 13.480469 30.304688 13.777344 30.328125 14.042969 30.390625 C 14.089844 30.398438 14.054688 30.753906 14.011719 30.992188 Z M 14.011719 30.992188 "/>
<path style=" stroke:none;fill-rule:nonzero;fill:rgb(99.607843%,99.215686%,92.54902%);fill-opacity:1;" d="M 21.917969 30.96875 C 21.867188 30.953125 21.773438 30.863281 21.777344 30.773438 C 21.785156 28.707031 21.804688 26.640625 21.871094 24.527344 C 21.917969 26.617188 21.921875 28.753906 21.917969 30.96875 Z M 21.917969 30.96875 "/>
<path style=" stroke:none;fill-rule:nonzero;fill:rgb(9.019608%,16.078432%,43.137255%);fill-opacity:1;" d="M 24.136719 38.792969 C 24.246094 38.605469 24.335938 38.484375 24.480469 38.289062 C 24.480469 39.402344 24.480469 40.4375 24.449219 41.5625 C 24.386719 41.527344 24.351562 41.402344 24.316406 41.230469 C 24.261719 41.109375 24.207031 41.03125 24.15625 40.957031 C 24.144531 40.261719 24.132812 39.5625 24.136719 38.792969 Z M 24.136719 38.792969 "/>
<path style=" stroke:none;fill-rule:nonzero;fill:rgb(96.078432%,96.862745%,97.647059%);fill-opacity:1;" d="M 20.824219 42.128906 C 20.882812 41.371094 20.960938 40.664062 21.066406 39.765625 C 21.214844 40.59375 21.335938 41.261719 21.464844 42 C 21.265625 42.101562 21.054688 42.136719 20.824219 42.128906 Z M 20.824219 42.128906 "/>
<path style=" stroke:none;fill-rule:nonzero;fill:rgb(93.333334%,97.647059%,100%);fill-opacity:1;" d="M 30.925781 21.753906 C 31.207031 21.4375 31.550781 21.136719 31.941406 20.808594 C 31.992188 20.835938 31.992188 20.886719 32 20.941406 C 32.105469 21.996094 32.011719 22.074219 30.925781 21.753906 Z M 30.925781 21.753906 "/>
<path style=" stroke:none;fill-rule:nonzero;fill:rgb(33.333334%,58.431375%,93.333334%);fill-opacity:1;" d="M 16.804688 31.644531 C 16.679688 31.609375 16.550781 31.574219 16.332031 31.519531 C 16.207031 31.496094 16.179688 31.492188 16.148438 31.488281 C 16.085938 31.445312 16.019531 31.402344 15.917969 31.351562 C 15.847656 31.296875 15.8125 31.246094 15.757812 31.152344 C 17.058594 31.25 18.386719 31.390625 19.785156 31.542969 C 19.316406 31.605469 18.769531 31.652344 18.148438 31.710938 C 17.957031 31.714844 17.832031 31.707031 17.585938 31.695312 C 17.242188 31.675781 17.023438 31.660156 16.804688 31.644531 Z M 16.804688 31.644531 "/>
<path style=" stroke:none;fill-rule:nonzero;fill:rgb(79.215688%,80.784315%,85.09804%);fill-opacity:1;" d="M 26.28125 41.117188 C 26.523438 41.375 26.726562 41.644531 26.988281 41.925781 C 26.765625 42.128906 26.484375 42.320312 26.203125 42.507812 C 26.148438 42.449219 26.09375 42.386719 26.039062 42.328125 C 26.105469 41.929688 26.171875 41.53125 26.28125 41.117188 Z M 26.28125 41.117188 "/>
<path style=" stroke:none;fill-rule:nonzero;fill:rgb(90.588236%,91.764706%,94.509804%);fill-opacity:1;" d="M 22.269531 42.066406 C 22.328125 41.351562 22.457031 40.640625 22.585938 39.929688 C 22.640625 39.933594 22.695312 39.9375 22.75 39.941406 C 22.75 40.601562 22.75 41.257812 22.75 41.992188 C 22.613281 42.066406 22.476562 42.070312 22.269531 42.066406 Z M 22.269531 42.066406 "/>
<path style=" stroke:none;fill-rule:nonzero;fill:rgb(80.000001%,83.137256%,89.411765%);fill-opacity:1;" d="M 10.878906 42.003906 C 10.964844 41.75 11.109375 41.546875 11.136719 41.332031 C 11.179688 40.953125 11.148438 40.566406 11.148438 40.183594 C 11.242188 40.175781 11.335938 40.167969 11.429688 40.160156 C 11.460938 40.746094 11.492188 41.332031 11.535156 41.992188 C 11.328125 42.058594 11.109375 42.054688 10.878906 42.003906 Z M 10.878906 42.003906 "/>
<path style=" stroke:none;fill-rule:nonzero;fill:rgb(7.450981%,13.333334%,37.64706%);fill-opacity:1;" d="M 19.042969 41.050781 C 19.011719 41.121094 18.976562 41.121094 18.890625 41.121094 C 18.835938 40.261719 18.835938 39.40625 18.851562 38.476562 C 19.519531 38.675781 19.140625 39.222656 19.167969 39.640625 C 19.195312 40.082031 19.089844 40.53125 19.042969 41.050781 Z M 19.042969 41.050781 "/>
<path style=" stroke:none;fill-rule:nonzero;fill:rgb(3.529412%,11.372549%,35.294119%);fill-opacity:1;" d="M 24.320312 41.28125 C 24.351562 41.402344 24.386719 41.527344 24.449219 41.628906 C 24.625 41.53125 24.765625 41.460938 24.933594 41.347656 C 25.183594 41.332031 25.425781 41.320312 25.617188 41.414062 C 25.703125 41.457031 25.683594 41.714844 25.707031 41.875 C 25.597656 41.839844 25.488281 41.800781 25.304688 41.773438 C 25.179688 41.804688 25.144531 41.84375 25.121094 41.890625 C 24.804688 41.886719 24.488281 41.886719 24.167969 41.78125 C 24.160156 41.644531 24.15625 41.609375 24.148438 41.578125 C 24.140625 41.511719 24.128906 41.445312 24.175781 41.332031 C 24.265625 41.28125 24.292969 41.28125 24.320312 41.28125 Z M 24.320312 41.28125 "/>
<path style=" stroke:none;fill-rule:nonzero;fill:rgb(17.254902%,22.352941%,43.137255%);fill-opacity:1;" d="M 28.402344 39.433594 C 28.144531 39.488281 27.890625 39.488281 27.519531 39.488281 C 27.519531 39.144531 27.519531 38.84375 27.511719 38.472656 C 27.753906 38.59375 28.003906 38.777344 28.289062 38.921875 C 28.347656 39.042969 28.375 39.210938 28.402344 39.433594 Z M 28.402344 39.433594 "/>
<path style=" stroke:none;fill-rule:nonzero;fill:rgb(7.450981%,13.333334%,37.64706%);fill-opacity:1;" d="M 18.257812 41.484375 C 18.484375 41.410156 18.726562 41.382812 19.011719 41.308594 C 19.199219 41.257812 19.34375 41.253906 19.519531 41.285156 C 19.203125 41.519531 18.863281 41.71875 18.460938 41.90625 C 18.359375 41.773438 18.316406 41.648438 18.257812 41.484375 Z M 18.257812 41.484375 "/>
<path style=" stroke:none;fill-rule:nonzero;fill:rgb(93.333334%,97.647059%,100%);fill-opacity:1;" d="M 30.261719 22.007812 C 30.421875 21.886719 30.589844 21.820312 30.808594 21.742188 C 30.816406 22.019531 30.769531 22.300781 30.726562 22.644531 C 30.570312 22.492188 30.417969 22.273438 30.261719 22.007812 Z M 30.261719 22.007812 "/>
<path style=" stroke:none;fill-rule:nonzero;fill:rgb(17.254902%,22.352941%,43.137255%);fill-opacity:1;" d="M 28.246094 38.199219 C 28.019531 38.128906 27.777344 38.011719 27.527344 37.839844 C 27.753906 37.910156 27.992188 38.027344 28.246094 38.199219 Z M 28.246094 38.199219 "/>
<path style=" stroke:none;fill-rule:nonzero;fill:rgb(96.078432%,96.862745%,97.647059%);fill-opacity:1;" d="M 20.09375 41.921875 C 20.152344 41.917969 20.199219 41.980469 20.207031 42.015625 C 20.042969 42.171875 19.871094 42.292969 19.699219 42.410156 C 19.652344 42.351562 19.601562 42.289062 19.554688 42.226562 C 19.714844 42.125 19.875 42.023438 20.09375 41.921875 Z M 20.09375 41.921875 "/>
<path style=" stroke:none;fill-rule:nonzero;fill:rgb(93.333334%,97.647059%,100%);fill-opacity:1;" d="M 23.195312 23.683594 C 23.367188 23.636719 23.546875 23.640625 23.777344 23.65625 C 23.835938 23.695312 23.84375 23.722656 23.847656 23.792969 C 23.632812 23.800781 23.417969 23.765625 23.195312 23.683594 Z M 23.195312 23.683594 "/>
<path style=" stroke:none;fill-rule:nonzero;fill:rgb(7.450981%,13.333334%,37.64706%);fill-opacity:1;" d="M 17.609375 40.386719 C 17.667969 40.660156 17.710938 40.996094 17.757812 41.390625 C 17.699219 41.324219 17.644531 41.199219 17.574219 41.019531 C 17.574219 40.792969 17.585938 40.621094 17.609375 40.386719 Z M 17.609375 40.386719 "/>
<path style=" stroke:none;fill-rule:nonzero;fill:rgb(94.509804%,98.823529%,99.607843%);fill-opacity:1;" d="M 14.488281 9.175781 C 14.53125 9.453125 14.535156 9.773438 14.527344 10.160156 C 14.496094 9.890625 14.472656 9.554688 14.488281 9.175781 Z M 14.488281 9.175781 "/>
<path style=" stroke:none;fill-rule:nonzero;fill:rgb(80.000001%,83.137256%,89.411765%);fill-opacity:1;" d="M 28.929688 38.097656 C 29.007812 38.226562 29.039062 38.378906 29.015625 38.546875 C 28.9375 38.414062 28.910156 38.265625 28.929688 38.097656 Z M 28.929688 38.097656 "/>
<path style=" stroke:none;fill-rule:nonzero;fill:rgb(94.509804%,98.823529%,99.607843%);fill-opacity:1;" d="M 14.496094 25.164062 C 14.542969 25.394531 14.554688 25.667969 14.546875 26.007812 C 14.507812 25.785156 14.484375 25.496094 14.496094 25.164062 Z M 14.496094 25.164062 "/>
<path style=" stroke:none;fill-rule:nonzero;fill:rgb(18.431373%,23.529412%,44.313726%);fill-opacity:1;" d="M 33.316406 38.0625 C 33.222656 38.023438 33.171875 37.972656 33.125 37.878906 C 33.167969 37.800781 33.207031 37.765625 33.246094 37.726562 C 33.285156 37.835938 33.324219 37.941406 33.316406 38.0625 Z M 33.316406 38.0625 "/>
<path style=" stroke:none;fill-rule:nonzero;fill:rgb(10.980392%,17.647059%,38.82353%);fill-opacity:1;" d="M 24.316406 41.230469 C 24.292969 41.28125 24.265625 41.28125 24.195312 41.28125 C 24.140625 41.195312 24.128906 41.105469 24.136719 40.988281 C 24.207031 41.03125 24.261719 41.109375 24.316406 41.230469 Z M 24.316406 41.230469 "/>
<path style=" stroke:none;fill-rule:nonzero;fill:rgb(94.509804%,98.823529%,99.607843%);fill-opacity:1;" d="M 14.5 26.917969 C 14.542969 27.054688 14.550781 27.222656 14.546875 27.453125 C 14.511719 27.328125 14.484375 27.140625 14.5 26.917969 Z M 14.5 26.917969 "/>
<path style=" stroke:none;fill-rule:nonzero;fill:rgb(93.333334%,97.647059%,100%);fill-opacity:1;" d="M 20.363281 31.589844 C 20.496094 31.539062 20.664062 31.519531 20.894531 31.511719 C 20.773438 31.558594 20.589844 31.59375 20.363281 31.589844 Z M 20.363281 31.589844 "/>
<path style=" stroke:none;fill-rule:nonzero;fill:rgb(12.941177%,19.215687%,40.000001%);fill-opacity:1;" d="M 28.976562 41.808594 C 29.03125 41.824219 29.070312 41.882812 29.117188 41.980469 C 29.070312 41.964844 29.019531 41.910156 28.976562 41.808594 Z M 28.976562 41.808594 "/>
<path style=" stroke:none;fill-rule:nonzero;fill:rgb(34.117648%,88.627452%,96.862745%);fill-opacity:1;" d="M 33.453125 10.660156 C 33.390625 10.644531 33.328125 10.582031 33.261719 10.472656 C 33.320312 10.488281 33.386719 10.546875 33.453125 10.660156 Z M 33.453125 10.660156 "/>
<path style=" stroke:none;fill-rule:nonzero;fill:rgb(10.196079%,15.686275%,37.254903%);fill-opacity:1;" d="M 25.164062 41.898438 C 25.144531 41.84375 25.179688 41.804688 25.265625 41.769531 C 25.273438 41.808594 25.238281 41.855469 25.164062 41.898438 Z M 25.164062 41.898438 "/>
<path style=" stroke:none;fill-rule:nonzero;fill:rgb(95.686275%,96.470588%,96.078432%);fill-opacity:1;" d="M 34.738281 42.121094 C 34.746094 42.085938 34.773438 42.074219 34.839844 42.070312 C 34.839844 42.097656 34.796875 42.121094 34.738281 42.121094 Z M 34.738281 42.121094 "/>
<path style=" stroke:none;fill-rule:nonzero;fill:rgb(95.686275%,96.470588%,96.078432%);fill-opacity:1;" d="M 34.253906 42.105469 C 34.265625 42.074219 34.292969 42.070312 34.359375 42.082031 C 34.355469 42.109375 34.308594 42.121094 34.253906 42.105469 Z M 34.253906 42.105469 "/>
<path style=" stroke:none;fill-rule:nonzero;fill:rgb(67.843139%,98.431373%,98.823529%);fill-opacity:1;" d="M 30.398438 7.761719 C 30.421875 7.792969 30.339844 7.796875 30.339844 7.796875 C 30.339844 7.796875 30.273438 7.75 30.257812 7.714844 C 30.296875 7.679688 30.339844 7.695312 30.398438 7.761719 Z M 30.398438 7.761719 "/>
<path style=" stroke:none;fill-rule:nonzero;fill:rgb(10.980392%,17.647059%,38.82353%);fill-opacity:1;" d="M 24.132812 41.597656 C 24.15625 41.609375 24.160156 41.644531 24.160156 41.726562 C 24.140625 41.726562 24.128906 41.671875 24.132812 41.597656 Z M 24.132812 41.597656 "/>
<path style=" stroke:none;fill-rule:nonzero;fill:rgb(93.333334%,97.647059%,100%);fill-opacity:1;" d="M 30.863281 22.835938 C 30.832031 22.855469 30.792969 22.828125 30.746094 22.753906 C 30.78125 22.734375 30.820312 22.761719 30.863281 22.835938 Z M 30.863281 22.835938 "/>
<path style=" stroke:none;fill-rule:nonzero;fill:rgb(94.509804%,98.823529%,99.607843%);fill-opacity:1;" d="M 14.511719 28.015625 C 14.542969 28.027344 14.550781 28.054688 14.546875 28.121094 C 14.519531 28.117188 14.503906 28.074219 14.511719 28.015625 Z M 14.511719 28.015625 "/>
<path style=" stroke:none;fill-rule:nonzero;fill:rgb(3.137255%,14.509805%,48.235294%);fill-opacity:1;" d="M 14.699219 28.324219 C 14.722656 28.378906 14.695312 28.421875 14.625 28.476562 C 14.585938 28.46875 14.574219 28.4375 14.582031 28.363281 C 14.59375 28.316406 14.664062 28.320312 14.699219 28.324219 Z M 14.699219 28.324219 "/>
<path style=" stroke:none;fill-rule:nonzero;fill:rgb(95.686275%,96.470588%,96.078432%);fill-opacity:1;" d="M 37.835938 39.75 C 37.84375 39.746094 37.824219 39.757812 37.835938 39.75 Z M 37.835938 39.75 "/>
<path style=" stroke:none;fill-rule:nonzero;fill:rgb(33.333334%,58.431375%,93.333334%);fill-opacity:1;" d="M 19.910156 31.578125 C 19.910156 31.542969 19.941406 31.519531 19.984375 31.523438 C 19.996094 31.554688 19.941406 31.585938 19.910156 31.578125 Z M 19.910156 31.578125 "/>
<path style=" stroke:none;fill-rule:nonzero;fill:rgb(79.215688%,80.784315%,85.09804%);fill-opacity:1;" d="M 26.363281 38.410156 C 26.394531 38.429688 26.394531 38.457031 26.371094 38.527344 C 26.332031 38.53125 26.3125 38.5 26.304688 38.46875 C 26.300781 38.457031 26.324219 38.4375 26.363281 38.410156 Z M 26.363281 38.410156 "/>
<path style=" stroke:none;fill-rule:nonzero;fill:rgb(99.215686%,99.607843%,99.607843%);fill-opacity:1;" d="M 21.871094 11.992188 C 22.191406 11.984375 22.46875 11.988281 22.867188 12.011719 C 23.332031 12.0625 23.667969 12.09375 24.074219 12.132812 C 24.941406 12.363281 25.742188 12.582031 26.5625 12.851562 C 26.835938 13.246094 27.09375 13.585938 27.347656 13.925781 C 27.316406 14.679688 27.410156 15.464844 27.21875 16.175781 C 26.894531 17.375 25.980469 17.988281 24.601562 18.089844 C 23.617188 18.078125 22.769531 18.070312 21.921875 17.988281 C 21.921875 17.410156 21.941406 16.910156 21.914062 16.40625 C 21.878906 15.683594 21.8125 14.960938 21.757812 14.167969 C 21.71875 13.503906 21.675781 12.917969 21.636719 12.328125 C 21.628906 12.261719 21.625 12.199219 21.625 12.085938 C 21.691406 12.027344 21.757812 12.015625 21.871094 11.992188 Z M 21.871094 11.992188 "/>
<path style=" stroke:none;fill-rule:nonzero;fill:rgb(61.960787%,94.117647%,98.431373%);fill-opacity:1;" d="M 16.28125 10.910156 C 15.453125 10.527344 15.84375 9.773438 15.894531 9.230469 C 15.929688 8.867188 16.40625 8.320312 16.753906 8.261719 C 17.226562 8.179688 17.984375 8.320312 18.238281 8.65625 C 18.851562 9.457031 19.417969 10.175781 20.476562 10.394531 C 20.914062 10.488281 20.925781 11.136719 20.511719 11.46875 C 20.308594 11.632812 20.046875 11.71875 19.726562 11.796875 C 19.109375 11.09375 18.605469 10.402344 18.023438 9.785156 C 17.820312 9.574219 17.410156 9.457031 17.105469 9.476562 C 16.890625 9.488281 16.628906 9.769531 16.511719 9.992188 C 16.367188 10.261719 16.351562 10.601562 16.28125 10.910156 Z M 16.28125 10.910156 "/>
<path style=" stroke:none;fill-rule:nonzero;fill:rgb(79.215688%,96.470588%,99.215686%);fill-opacity:1;" d="M 16.289062 10.957031 C 16.351562 10.601562 16.367188 10.261719 16.511719 9.992188 C 16.628906 9.769531 16.890625 9.488281 17.105469 9.476562 C 17.410156 9.457031 17.820312 9.574219 18.023438 9.785156 C 18.605469 10.402344 19.109375 11.09375 19.667969 11.804688 C 19.695312 11.851562 19.625 11.867188 19.546875 11.875 C 19.433594 11.917969 19.394531 11.957031 19.355469 11.992188 C 19.117188 12 18.824219 11.925781 18.652344 12.035156 C 17.957031 12.476562 17.414062 12.152344 16.824219 11.675781 C 16.636719 11.449219 16.480469 11.324219 16.324219 11.195312 C 16.316406 11.132812 16.304688 11.070312 16.289062 10.957031 Z M 16.289062 10.957031 "/>
<path style=" stroke:none;fill-rule:nonzero;fill:rgb(61.960787%,94.117647%,98.431373%);fill-opacity:1;" d="M 16.328125 11.25 C 16.480469 11.324219 16.636719 11.449219 16.789062 11.636719 C 16.632812 11.566406 16.480469 11.4375 16.328125 11.25 Z M 16.328125 11.25 "/>
<path style=" stroke:none;fill-rule:nonzero;fill:rgb(61.960787%,94.117647%,98.431373%);fill-opacity:1;" d="M 19.394531 11.984375 C 19.394531 11.957031 19.433594 11.917969 19.511719 11.878906 C 19.523438 11.925781 19.484375 11.957031 19.394531 11.984375 Z M 19.394531 11.984375 "/>
<path style=" stroke:none;fill-rule:nonzero;fill:rgb(10.980392%,25.882354%,77.64706%);fill-opacity:1;" d="M 23.847656 20.332031 C 24.144531 20.109375 24.414062 19.84375 24.734375 19.675781 C 26.808594 18.597656 28.007812 17.425781 27.835938 14.835938 C 27.820312 14.578125 27.742188 14.324219 27.683594 13.992188 C 27.679688 13.921875 27.695312 13.90625 27.75 13.921875 C 27.917969 14.101562 28.058594 14.257812 28.144531 14.441406 C 28.464844 15.097656 28.753906 15.769531 29.082031 16.421875 C 29.34375 16.9375 29.65625 17.425781 29.921875 17.9375 C 30.292969 18.652344 30.148438 19.335938 29.425781 19.625 C 28.875 19.84375 28.230469 19.832031 27.625 19.898438 C 27.152344 19.949219 26.589844 19.527344 26.175781 20.179688 C 26 20.171875 25.878906 20.160156 25.71875 20.109375 C 25.386719 20.101562 25.09375 20.132812 24.738281 20.175781 C 24.402344 20.234375 24.125 20.28125 23.847656 20.332031 Z M 23.847656 20.332031 "/>
<path style=" stroke:none;fill-rule:nonzero;fill:rgb(17.647059%,52.549022%,96.470588%);fill-opacity:1;" d="M 21.921875 18.058594 C 22.769531 18.070312 23.617188 18.078125 24.535156 18.097656 C 24.5625 18.140625 24.523438 18.191406 24.476562 18.199219 C 22.183594 18.449219 20.929688 19.820312 20.382812 21.964844 C 20.164062 22.824219 19.898438 23.667969 19.050781 24.140625 C 18.894531 24.230469 18.707031 24.265625 18.402344 24.324219 C 17.851562 24.234375 17.246094 24.578125 17.144531 23.785156 C 18.496094 23.253906 18.972656 22.101562 19.359375 20.910156 C 19.757812 19.679688 20.171875 18.492188 21.632812 18.078125 C 21.703125 18.070312 21.730469 18.0625 21.800781 18.066406 C 21.867188 18.070312 21.894531 18.066406 21.921875 18.058594 Z M 21.921875 18.058594 "/>
<path style=" stroke:none;fill-rule:nonzero;fill:rgb(34.117648%,82.745099%,99.215686%);fill-opacity:1;" d="M 23.847656 20.328125 C 24.125 20.28125 24.402344 20.234375 24.808594 20.183594 C 25.210938 20.167969 25.484375 20.160156 25.757812 20.148438 C 25.878906 20.160156 26 20.171875 26.210938 20.199219 C 26.402344 20.265625 26.5 20.316406 26.59375 20.367188 C 25.96875 20.457031 25.34375 20.632812 24.722656 20.609375 C 24.222656 20.59375 23.792969 20.480469 23.539062 21.054688 C 23.511719 21.117188 23.292969 21.101562 23.101562 21.121094 C 23.007812 21.078125 22.976562 21.035156 22.90625 20.972656 C 23.027344 20.832031 23.183594 20.710938 23.417969 20.539062 C 23.613281 20.4375 23.730469 20.382812 23.847656 20.328125 C 23.847656 20.328125 23.84375 20.328125 23.847656 20.328125 Z M 23.847656 20.328125 "/>
<path style=" stroke:none;fill-rule:nonzero;fill:rgb(12.156863%,34.901962%,88.235295%);fill-opacity:1;" d="M 21.949219 23.464844 C 21.855469 23.535156 21.789062 23.542969 21.667969 23.5625 C 21.332031 22.664062 21.578125 21.867188 22.378906 21.300781 C 22.285156 22 22.128906 22.703125 21.949219 23.464844 Z M 21.949219 23.464844 "/>
<path style=" stroke:none;fill-rule:nonzero;fill:rgb(9.019608%,16.078432%,43.137255%);fill-opacity:1;" d="M 21.523438 23.894531 C 21.574219 25.714844 21.585938 27.582031 21.585938 29.527344 C 21.574219 29.601562 21.507812 29.601562 21.472656 29.597656 C 21.453125 27.714844 21.46875 25.832031 21.523438 23.894531 Z M 21.523438 23.894531 "/>
<path style=" stroke:none;fill-rule:nonzero;fill:rgb(10.980392%,25.882354%,77.64706%);fill-opacity:1;" d="M 27.402344 13.925781 C 27.09375 13.585938 26.835938 13.246094 26.609375 12.835938 C 26.988281 13.148438 27.34375 13.527344 27.695312 13.90625 C 27.695312 13.90625 27.679688 13.921875 27.671875 13.925781 C 27.59375 13.933594 27.523438 13.929688 27.402344 13.925781 Z M 27.402344 13.925781 "/>
<path style=" stroke:none;fill-rule:nonzero;fill:rgb(16.862746%,47.450981%,89.803922%);fill-opacity:1;" d="M 14.667969 24 C 14.589844 23.875 14.578125 23.757812 14.613281 23.578125 C 14.652344 23.519531 14.714844 23.515625 14.757812 23.5625 C 15.144531 23.679688 15.492188 23.75 15.839844 23.867188 C 15.839844 23.9375 15.839844 23.964844 15.839844 23.996094 C 15.472656 23.996094 15.105469 24 14.667969 24 Z M 14.667969 24 "/>
<path style=" stroke:none;fill-rule:nonzero;fill:rgb(16.862746%,47.450981%,89.803922%);fill-opacity:1;" d="M 17.105469 23.824219 C 17.246094 24.578125 17.851562 24.234375 18.34375 24.324219 C 17.902344 24.320312 17.394531 24.316406 16.835938 24.210938 C 16.796875 24.019531 16.800781 23.929688 16.855469 23.835938 C 16.972656 23.832031 17.039062 23.828125 17.105469 23.824219 Z M 17.105469 23.824219 "/>
<path style=" stroke:none;fill-rule:nonzero;fill:rgb(17.647059%,52.549022%,96.470588%);fill-opacity:1;" d="M 16.804688 23.835938 C 16.800781 23.929688 16.796875 24.019531 16.789062 24.179688 C 16.558594 24.203125 16.332031 24.160156 16.023438 24.074219 C 15.914062 24.015625 15.882812 24.003906 15.847656 24 C 15.847656 24 15.839844 24 15.839844 23.996094 C 15.839844 23.964844 15.839844 23.9375 15.910156 23.871094 C 16.253906 23.832031 16.527344 23.835938 16.804688 23.835938 Z M 16.804688 23.835938 "/>
<path style=" stroke:none;fill-rule:nonzero;fill:rgb(10.980392%,25.882354%,77.64706%);fill-opacity:1;" d="M 23.792969 20.316406 C 23.730469 20.382812 23.613281 20.4375 23.445312 20.496094 C 23.507812 20.433594 23.625 20.371094 23.792969 20.316406 Z M 23.792969 20.316406 "/>
<path style=" stroke:none;fill-rule:nonzero;fill:rgb(16.862746%,47.450981%,89.803922%);fill-opacity:1;" d="M 15.859375 24.023438 C 15.882812 24.003906 15.914062 24.015625 15.960938 24.046875 C 15.980469 24.066406 15.925781 24.082031 15.925781 24.082031 C 15.925781 24.082031 15.875 24.050781 15.859375 24.023438 Z M 15.859375 24.023438 "/>
<path style=" stroke:none;fill-rule:nonzero;fill:rgb(37.254903%,82.745099%,96.078432%);fill-opacity:1;" d="M 24.207031 21.257812 C 24.265625 21.179688 24.371094 21.109375 24.480469 21.085938 C 24.40625 21.175781 24.332031 21.21875 24.207031 21.257812 Z M 24.207031 21.257812 "/>
<path style=" stroke:none;fill-rule:nonzero;fill:rgb(37.254903%,82.745099%,96.078432%);fill-opacity:1;" d="M 23.726562 21.441406 C 23.753906 21.390625 23.824219 21.339844 23.941406 21.28125 C 23.917969 21.332031 23.847656 21.382812 23.726562 21.441406 Z M 23.726562 21.441406 "/>
<path style=" stroke:none;fill-rule:nonzero;fill:rgb(34.117648%,87.058824%,96.470588%);fill-opacity:1;" d="M 23.035156 21.882812 C 22.960938 21.886719 22.898438 21.851562 22.835938 21.820312 C 22.882812 21.800781 22.933594 21.785156 23.019531 21.765625 C 23.0625 21.769531 23.042969 21.84375 23.035156 21.882812 Z M 23.035156 21.882812 "/>
<path style=" stroke:none;fill-rule:nonzero;fill:rgb(21.176471%,54.901963%,96.862745%);fill-opacity:1;" d="M 30.996094 25.191406 C 31.03125 25.207031 30.976562 25.238281 30.976562 25.238281 C 30.976562 25.238281 30.914062 25.226562 30.898438 25.214844 C 30.882812 25.199219 30.957031 25.175781 30.996094 25.191406 Z M 30.996094 25.191406 "/>
<path style=" stroke:none;fill-rule:nonzero;fill:rgb(25.490198%,58.431375%,98.823529%);fill-opacity:1;" d="M 24.003906 12.125 C 23.667969 12.09375 23.332031 12.0625 22.9375 12 C 23.390625 11.660156 23.882812 11.308594 24.421875 11.046875 C 25.074219 10.734375 25.785156 10.535156 26.433594 10.214844 C 28.660156 9.121094 30.695312 9.675781 32.59375 10.976562 C 33.488281 11.59375 33.714844 12.558594 33.441406 13.6875 C 31.835938 14.300781 30.695312 13.34375 29.609375 12.457031 C 28.210938 11.320312 26.714844 11.070312 24.9375 11.625 C 24.558594 11.824219 24.28125 11.976562 24.003906 12.125 Z M 24.003906 12.125 "/>
<path style=" stroke:none;fill-rule:nonzero;fill:rgb(13.725491%,30.980393%,89.019608%);fill-opacity:1;" d="M 24.074219 12.132812 C 24.28125 11.976562 24.558594 11.824219 24.894531 11.671875 C 27.640625 11.332031 28.574219 13.300781 29.484375 15.199219 C 29.871094 16.011719 30.300781 16.742188 31.039062 17.238281 C 31.296875 17.414062 31.691406 17.378906 32.09375 17.492188 C 32.210938 17.667969 32.265625 17.792969 32.316406 17.917969 C 32.320312 17.917969 32.324219 17.921875 32.324219 17.921875 C 32.273438 18.160156 32.226562 18.398438 32.179688 18.703125 C 31.605469 19.703125 30.671875 20.09375 29.5625 20.429688 C 28.804688 20.460938 28.167969 20.457031 27.527344 20.453125 C 27.398438 20.417969 27.265625 20.382812 27.039062 20.347656 C 26.90625 20.394531 26.871094 20.4375 26.835938 20.480469 C 26.835938 20.480469 26.800781 20.546875 26.828125 20.582031 C 26.855469 20.621094 26.835938 20.617188 26.835938 20.617188 C 26.78125 20.550781 26.726562 20.480469 26.632812 20.386719 C 26.5 20.316406 26.402344 20.265625 26.273438 20.195312 C 26.589844 19.527344 27.152344 19.949219 27.625 19.898438 C 28.230469 19.832031 28.875 19.84375 29.425781 19.625 C 30.148438 19.335938 30.292969 18.652344 29.921875 17.9375 C 29.65625 17.425781 29.34375 16.9375 29.082031 16.421875 C 28.753906 15.769531 28.464844 15.097656 28.144531 14.441406 C 28.058594 14.257812 27.917969 14.101562 27.75 13.921875 C 27.34375 13.527344 26.988281 13.148438 26.589844 12.785156 C 25.742188 12.582031 24.941406 12.363281 24.074219 12.132812 Z M 24.074219 12.132812 "/>
<path style=" stroke:none;fill-rule:nonzero;fill:rgb(16.862746%,29.019609%,70.980394%);fill-opacity:1;" d="M 32.417969 16.132812 C 31.359375 16.617188 31.152344 16.5625 30.710938 15.746094 C 30.414062 15.199219 30.738281 14.558594 31.359375 14.570312 C 32.132812 14.585938 32.902344 14.691406 33.667969 14.753906 C 33.269531 15.199219 32.863281 15.644531 32.417969 16.132812 Z M 32.417969 16.132812 "/>
<path style=" stroke:none;fill-rule:nonzero;fill:rgb(13.725491%,30.980393%,89.019608%);fill-opacity:1;" d="M 32.738281 17.28125 C 32.675781 17.488281 32.550781 17.699219 32.378906 17.914062 C 32.324219 17.921875 32.320312 17.917969 32.320312 17.855469 C 32.320312 17.621094 32.320312 17.453125 32.320312 17.28125 C 32.441406 17.28125 32.558594 17.28125 32.738281 17.28125 Z M 32.738281 17.28125 "/>
<path style=" stroke:none;fill-rule:nonzero;fill:rgb(12.156863%,34.901962%,88.235295%);fill-opacity:1;" d="M 32.285156 17.300781 C 32.320312 17.453125 32.320312 17.621094 32.316406 17.851562 C 32.265625 17.792969 32.210938 17.667969 32.160156 17.492188 C 32.175781 17.386719 32.207031 17.347656 32.285156 17.300781 Z M 32.285156 17.300781 "/>
<path style=" stroke:none;fill-rule:nonzero;fill:rgb(13.725491%,30.980393%,89.019608%);fill-opacity:1;" d="M 32.921875 17.132812 C 32.945312 17.167969 32.917969 17.210938 32.835938 17.257812 C 32.816406 17.222656 32.84375 17.183594 32.921875 17.132812 Z M 32.921875 17.132812 "/>
<path style=" stroke:none;fill-rule:nonzero;fill:rgb(3.137255%,14.509805%,48.235294%);fill-opacity:1;" d="M 15.480469 27.941406 C 15.394531 28.039062 15.269531 28.101562 15.097656 28.167969 C 15.179688 28.085938 15.3125 27.996094 15.480469 27.941406 Z M 15.480469 27.941406 "/>
<path style=" stroke:none;fill-rule:nonzero;fill:rgb(3.137255%,14.509805%,48.235294%);fill-opacity:1;" d="M 16.765625 28.136719 C 16.695312 28.15625 16.601562 28.128906 16.46875 28.0625 C 16.535156 28.050781 16.636719 28.070312 16.765625 28.136719 Z M 16.765625 28.136719 "/>
<path style=" stroke:none;fill-rule:nonzero;fill:rgb(3.137255%,14.509805%,48.235294%);fill-opacity:1;" d="M 14.964844 24.886719 C 14.957031 24.894531 14.972656 24.882812 14.964844 24.886719 Z M 14.964844 24.886719 "/>
<path style=" stroke:none;fill-rule:nonzero;fill:rgb(22.745098%,38.431373%,92.156863%);fill-opacity:1;" d="M 14.714844 23.515625 C 14.714844 23.515625 14.652344 23.519531 14.621094 23.519531 C 14.589844 20.046875 14.585938 16.574219 14.597656 13.027344 C 14.917969 13.484375 15.257812 13.996094 15.53125 14.542969 C 16.242188 15.960938 17.148438 16.519531 18.226562 15.988281 C 18.695312 15.757812 19.03125 15.214844 19.355469 14.761719 C 19.851562 14.070312 20.289062 13.335938 21.382812 13.488281 C 21.488281 13.613281 21.523438 13.691406 21.5625 13.84375 C 21.546875 15.09375 21.527344 16.269531 21.441406 17.445312 C 20.460938 17.300781 19.796875 17.707031 19.257812 18.402344 C 18.511719 19.371094 17.777344 20.355469 17.003906 21.304688 C 16.535156 21.882812 15.894531 21.929688 15.269531 21.515625 C 15.148438 21.433594 15.023438 21.363281 14.714844 21.175781 C 14.714844 22.0625 14.714844 22.789062 14.714844 23.515625 M 15.519531 18.929688 C 15.519531 19.035156 15.484375 19.160156 15.527344 19.246094 C 15.644531 19.5 15.792969 19.742188 15.929688 19.988281 C 16.144531 19.769531 16.449219 19.585938 16.554688 19.324219 C 16.945312 18.335938 16.65625 17.417969 16.105469 16.570312 C 15.984375 16.382812 15.746094 16.273438 15.371094 15.984375 C 15.429688 17.082031 15.472656 17.929688 15.519531 18.929688 Z M 15.519531 18.929688 "/>
<path style=" stroke:none;fill-rule:nonzero;fill:rgb(93.333334%,97.647059%,100%);fill-opacity:1;" d="M 21.507812 17.449219 C 21.527344 16.269531 21.546875 15.09375 21.582031 13.78125 C 21.589844 13.523438 21.582031 13.402344 21.574219 13.277344 C 21.585938 13.003906 21.59375 12.730469 21.617188 12.394531 C 21.675781 12.917969 21.71875 13.503906 21.757812 14.242188 C 21.757812 15.613281 21.757812 16.832031 21.757812 18.054688 C 21.730469 18.0625 21.703125 18.070312 21.621094 18.015625 C 21.542969 17.789062 21.523438 17.617188 21.507812 17.449219 Z M 21.507812 17.449219 "/>
<path style=" stroke:none;fill-rule:nonzero;fill:rgb(48.235294%,56.470591%,92.54902%);fill-opacity:1;" d="M 21.546875 13.300781 C 21.582031 13.402344 21.589844 13.523438 21.578125 13.707031 C 21.523438 13.691406 21.488281 13.613281 21.449219 13.492188 C 21.457031 13.398438 21.484375 13.355469 21.546875 13.300781 Z M 21.546875 13.300781 "/>
<path style=" stroke:none;fill-rule:nonzero;fill:rgb(34.117648%,82.745099%,99.215686%);fill-opacity:1;" d="M 27.566406 20.507812 C 28.167969 20.457031 28.804688 20.460938 29.519531 20.464844 C 28.929688 20.5 28.269531 20.53125 27.566406 20.507812 Z M 27.566406 20.507812 "/>
<path style=" stroke:none;fill-rule:nonzero;fill:rgb(34.117648%,82.745099%,99.215686%);fill-opacity:1;" d="M 26.855469 20.609375 C 26.878906 20.632812 26.902344 20.664062 26.921875 20.695312 C 26.90625 20.683594 26.890625 20.675781 26.855469 20.640625 C 26.835938 20.617188 26.855469 20.621094 26.855469 20.609375 Z M 26.855469 20.609375 "/>
<path style=" stroke:none;fill-rule:nonzero;fill:rgb(34.117648%,82.745099%,99.215686%);fill-opacity:1;" d="M 26.875 20.46875 C 26.871094 20.4375 26.90625 20.394531 26.988281 20.355469 C 27.007812 20.40625 26.964844 20.441406 26.875 20.46875 Z M 26.875 20.46875 "/>
<path style=" stroke:none;fill-rule:nonzero;fill:rgb(12.156863%,27.058825%,78.039217%);fill-opacity:1;" d="M 30.078125 29.761719 C 30.5625 29.601562 31.042969 29.441406 31.585938 29.28125 C 31.324219 29.550781 31 29.820312 30.609375 30.035156 C 30.390625 29.910156 30.234375 29.835938 30.082031 29.761719 C 30.082031 29.761719 30.078125 29.761719 30.078125 29.761719 Z M 30.078125 29.761719 "/>
<path style=" stroke:none;fill-rule:nonzero;fill:rgb(11.372549%,26.274511%,76.862746%);fill-opacity:1;" d="M 30.089844 29.816406 C 30.234375 29.835938 30.390625 29.910156 30.550781 30.039062 C 30.558594 30.097656 30.503906 30.105469 30.476562 30.105469 C 30.332031 30.027344 30.214844 29.949219 30.089844 29.816406 Z M 30.089844 29.816406 "/>
<path style=" stroke:none;fill-rule:nonzero;fill:rgb(94.509804%,98.823529%,99.607843%);fill-opacity:1;" d="M 22.726562 6.566406 C 23.316406 6.667969 23.382812 6.980469 22.925781 7.171875 C 22.425781 7.382812 21.839844 7.4375 21.289062 7.460938 C 21.140625 7.46875 20.980469 7.109375 20.824219 6.921875 C 21.003906 6.800781 21.171875 6.601562 21.359375 6.578125 C 21.789062 6.527344 22.226562 6.566406 22.726562 6.566406 Z M 22.726562 6.566406 "/>
<path style=" stroke:none;fill-rule:nonzero;fill:rgb(18.431373%,23.529412%,44.313726%);fill-opacity:1;" d="M 32.984375 40.28125 C 32.8125 40.496094 32.683594 40.664062 32.558594 40.835938 C 32.503906 40.808594 32.453125 40.78125 32.398438 40.753906 C 32.628906 40.101562 32.859375 39.445312 33.132812 38.664062 C 33.097656 39.253906 33.0625 39.746094 32.984375 40.28125 Z M 32.984375 40.28125 "/>
<path style=" stroke:none;fill-rule:nonzero;fill:rgb(99.607843%,100%,100%);fill-opacity:1;" d="M 33.449219 39.894531 C 33.539062 39.890625 33.617188 39.9375 33.695312 39.988281 C 33.652344 40.039062 33.605469 40.089844 33.519531 40.152344 C 33.460938 40.085938 33.453125 40.015625 33.449219 39.894531 Z M 33.449219 39.894531 "/>
<path style=" stroke:none;fill-rule:nonzero;fill:rgb(18.431373%,23.529412%,44.313726%);fill-opacity:1;" d="M 32.65625 38.265625 C 32.734375 38.296875 32.769531 38.335938 32.804688 38.375 C 32.730469 38.402344 32.660156 38.429688 32.585938 38.453125 C 32.597656 38.394531 32.609375 38.332031 32.65625 38.265625 Z M 32.65625 38.265625 "/>
<path style=" stroke:none;fill-rule:nonzero;fill:rgb(18.431373%,23.529412%,44.313726%);fill-opacity:1;" d="M 32.503906 38.90625 C 32.441406 38.917969 32.402344 38.90625 32.363281 38.894531 C 32.40625 38.851562 32.449219 38.808594 32.492188 38.765625 C 32.503906 38.804688 32.515625 38.84375 32.503906 38.90625 Z M 32.503906 38.90625 "/>
<path style=" stroke:none;fill-rule:nonzero;fill:rgb(99.607843%,100%,100%);fill-opacity:1;" d="M 35.816406 39.453125 C 36.050781 39.226562 36.285156 39.058594 36.566406 38.886719 C 36.632812 38.953125 36.640625 39.023438 36.640625 39.148438 C 36.390625 39.453125 36.15625 39.707031 35.871094 39.984375 C 35.820312 39.839844 35.8125 39.675781 35.816406 39.453125 Z M 35.816406 39.453125 "/>
<path style=" stroke:none;fill-rule:nonzero;fill:rgb(99.607843%,100%,100%);fill-opacity:1;" d="M 35.742188 40.113281 C 35.78125 40.246094 35.796875 40.378906 35.796875 40.507812 C 35.796875 40.515625 35.671875 40.523438 35.605469 40.527344 C 35.617188 40.433594 35.632812 40.335938 35.664062 40.195312 C 35.679688 40.148438 35.714844 40.109375 35.742188 40.113281 Z M 35.742188 40.113281 "/>
<path style=" stroke:none;fill-rule:nonzero;fill:rgb(99.607843%,100%,100%);fill-opacity:1;" d="M 35.148438 40.164062 C 35.179688 40.21875 35.148438 40.257812 35.070312 40.304688 C 35.054688 40.265625 35.078125 40.210938 35.148438 40.164062 Z M 35.148438 40.164062 "/>
<path style=" stroke:none;fill-rule:nonzero;fill:rgb(17.254902%,22.352941%,43.137255%);fill-opacity:1;" d="M 29.761719 39.1875 C 29.855469 39.234375 29.980469 39.316406 30.101562 39.398438 C 30.046875 39.460938 29.992188 39.519531 29.933594 39.582031 C 29.886719 39.460938 29.839844 39.339844 29.761719 39.1875 Z M 29.761719 39.1875 "/>
<path style=" stroke:none;fill-rule:nonzero;fill:rgb(99.607843%,100%,100%);fill-opacity:1;" d="M 35.660156 40.882812 C 35.847656 41.007812 35.976562 41.148438 36.140625 41.320312 C 35.605469 41.363281 35.605469 41.363281 35.660156 40.882812 Z M 35.660156 40.882812 "/>
<path style=" stroke:none;fill-rule:nonzero;fill:rgb(17.254902%,22.352941%,43.137255%);fill-opacity:1;" d="M 29.664062 40.914062 C 29.691406 40.9375 29.695312 40.972656 29.699219 41.007812 C 29.679688 40.980469 29.660156 40.957031 29.664062 40.914062 Z M 29.664062 40.914062 "/>
<path style=" stroke:none;fill-rule:nonzero;fill:rgb(7.450981%,13.333334%,37.64706%);fill-opacity:1;" d="M 17.613281 38.945312 C 17.699219 38.835938 17.769531 38.792969 17.882812 38.734375 C 18.074219 39.171875 18.332031 39.636719 17.679688 39.992188 C 17.613281 39.671875 17.609375 39.34375 17.613281 38.945312 Z M 17.613281 38.945312 "/>
<path style=" stroke:none;fill-rule:nonzero;fill:rgb(99.607843%,100%,100%);fill-opacity:1;" d="M 16.832031 31.695312 C 17.023438 31.660156 17.242188 31.675781 17.527344 31.703125 C 17.347656 31.726562 17.105469 31.734375 16.832031 31.695312 Z M 16.832031 31.695312 "/>
<path style=" stroke:none;fill-rule:nonzero;fill:rgb(99.607843%,100%,100%);fill-opacity:1;" d="M 16.160156 31.519531 C 16.179688 31.492188 16.207031 31.496094 16.277344 31.519531 C 16.269531 31.546875 16.21875 31.546875 16.160156 31.519531 Z M 16.160156 31.519531 "/>
<path style=" stroke:none;fill-rule:nonzero;fill:rgb(99.607843%,100%,100%);fill-opacity:1;" d="M 15.679688 32 C 15.660156 31.976562 15.640625 31.953125 15.621094 31.929688 C 15.636719 31.9375 15.648438 31.945312 15.671875 31.976562 C 15.679688 32 15.679688 32 15.679688 32 Z M 15.679688 32 "/>
<path style=" stroke:none;fill-rule:nonzero;fill:rgb(99.607843%,99.215686%,92.54902%);fill-opacity:1;" d="M 21.800781 18.066406 C 21.757812 16.832031 21.757812 15.613281 21.757812 14.3125 C 21.8125 14.960938 21.878906 15.683594 21.914062 16.40625 C 21.941406 16.910156 21.921875 17.410156 21.921875 17.988281 C 21.894531 18.066406 21.867188 18.070312 21.800781 18.066406 Z M 21.800781 18.066406 "/>
<path style=" stroke:none;fill-rule:nonzero;fill:rgb(13.725491%,30.980393%,89.019608%);fill-opacity:1;" d="M 25.71875 20.109375 C 25.484375 20.160156 25.210938 20.167969 24.867188 20.171875 C 25.09375 20.132812 25.386719 20.101562 25.71875 20.109375 Z M 25.71875 20.109375 "/>
<path style=" stroke:none;fill-rule:nonzero;fill:rgb(12.941177%,30.19608%,90.588236%);fill-opacity:1;" d="M 21.441406 17.445312 C 21.523438 17.617188 21.542969 17.789062 21.578125 18.019531 C 20.171875 18.492188 19.757812 19.679688 19.359375 20.910156 C 18.972656 22.101562 18.496094 23.253906 17.144531 23.785156 C 17.039062 23.828125 16.972656 23.832031 16.855469 23.835938 C 16.527344 23.835938 16.253906 23.832031 15.910156 23.828125 C 15.492188 23.75 15.144531 23.679688 14.757812 23.5625 C 14.714844 22.789062 14.714844 22.0625 14.714844 21.175781 C 15.023438 21.363281 15.148438 21.433594 15.269531 21.515625 C 15.894531 21.929688 16.535156 21.882812 17.003906 21.304688 C 17.777344 20.355469 18.511719 19.371094 19.257812 18.402344 C 19.796875 17.707031 20.460938 17.300781 21.441406 17.445312 Z M 21.441406 17.445312 "/>
<path style=" stroke:none;fill-rule:nonzero;fill:rgb(25.490198%,57.647061%,98.039216%);fill-opacity:1;" d="M 15.519531 18.855469 C 15.472656 17.929688 15.429688 17.082031 15.371094 15.984375 C 15.746094 16.273438 15.984375 16.382812 16.105469 16.570312 C 16.65625 17.417969 16.945312 18.335938 16.554688 19.324219 C 16.449219 19.585938 16.144531 19.769531 15.929688 19.988281 C 15.792969 19.742188 15.644531 19.5 15.527344 19.246094 C 15.484375 19.160156 15.519531 19.035156 15.519531 18.855469 Z M 15.519531 18.855469 "/>
</g>
</svg>
